<svg width="272" height="819" viewBox="0 0 272 819" fill="none" xmlns="http://www.w3.org/2000/svg">
<g opacity="0.03">
<g clip-path="url(#clip0_13343_7659)">
<path fill-rule="evenodd" clip-rule="evenodd" d="M-25.0043 6.23103C-23.6625 10.9564 -23.6519 17.5994 -24.9619 33.7209C-25.9109 45.4132 -26.6811 59.1581 -26.6736 64.2646C-26.6629 71.044 -27.1693 73.3869 -28.5536 72.9441C-32.8867 71.5586 -33.0929 0 -28.7643 0C-27.6697 0 -25.9792 2.80323 -25.0043 6.23103ZM-86.6455 9.15742C-79.1361 17.4586 -79.9655 20.643 -87.8145 13.6496C-97.4374 5.07572 -96.8658 5.14023 -105.744 11.6484C-114.679 18.199 -119.984 19.9349 -111.639 13.5778C-108.763 11.3859 -104.475 7.7646 -102.112 5.53022C-99.7464 3.29438 -96.8643 1.46612 -95.7075 1.46612C-94.5507 1.46612 -90.4723 4.92765 -86.6455 9.15742ZM-154.442 3.1639C-153.195 4.61829 -152.576 15.4808 -152.408 38.9139C-152.203 67.2951 -152.509 72.6406 -154.366 73.0027C-156.212 73.3634 -156.723 68.3903 -157.526 42.2141C-158.525 9.64124 -157.714 -0.646561 -154.442 3.1639ZM-40.91 30.4221C-41.383 39.8977 -42.3185 53.257 -42.9886 60.1111C-44.1591 72.1055 -44.2804 72.4075 -46.2225 68.1748C-47.8857 64.552 -47.8994 62.0962 -46.2999 54.2466C-45.2325 49.0052 -44.0863 37.6252 -43.7527 28.956C-43.3919 19.5889 -42.5186 13.1951 -41.5983 13.1951C-40.5825 13.1951 -40.346 19.1315 -40.91 30.4221ZM-167.248 23.8245C-165.792 32.9937 -167.981 73.3062 -169.934 73.3062C-173.291 73.3062 -175.059 32.0011 -172.058 23.6764C-169.924 17.7548 -168.201 17.8076 -167.248 23.8245ZM-86.0103 27.0603C-82.552 30.6875 -79.7229 34.0229 -79.7229 34.473C-79.7229 36.0139 -85.0294 32.5069 -89.364 28.1012L-93.6986 23.697L-103.484 30.1743C-108.866 33.7385 -114.015 36.6531 -114.924 36.6531C-119.107 36.6531 -102.3 23.4902 -95.4861 21.4289C-92.9936 20.6753 -90.9226 21.9054 -86.0103 27.0603ZM-11.1317 53.8801C-10.7042 64.162 -10.5829 72.8195 -10.8618 73.1215C-11.1393 73.4221 -12.4189 73.2784 -13.7061 72.8004C-16.9673 71.5894 -17.2281 35.187 -13.976 35.187C-12.3765 35.187 -11.7306 39.43 -11.1317 53.8801ZM-88.101 45.8032C-85.1613 49.124 -82.7552 52.3832 -82.7552 53.0444C-82.7552 55.6702 -85.6313 53.9886 -89.4747 49.1152C-91.7003 46.2929 -94.4021 43.9837 -95.4755 43.9837C-96.5504 43.9837 -99.6024 46.2929 -102.259 49.1152C-104.913 51.9375 -108.385 54.2466 -109.971 54.2466C-112.388 54.2466 -111.985 53.3083 -107.492 48.4686C-104.542 45.2915 -100.176 42.0323 -97.7876 41.2274C-93.7956 39.883 -93.0148 40.251 -88.101 45.8032ZM-85.1006 65.8788C-78.1204 72.8209 -79.2271 73.8531 -86.7775 67.4417C-89.6263 65.0226 -92.7737 63.0434 -93.7698 63.0434C-94.7675 63.0434 -99.5341 65.4024 -104.365 68.2862C-115.778 75.0978 -119.386 73.9733 -108.514 66.9946C-95.8242 58.8458 -92.3371 58.6802 -85.1006 65.8788ZM-162.822 94.9536C-158.839 99.4927 -152.329 111.425 -153.834 111.425C-155.19 111.425 -157.144 109.289 -164.544 99.7126L-167.364 96.0634L-174.426 100.968C-178.311 103.664 -181.884 105.488 -182.369 105.02C-183.45 103.973 -177.859 99.4384 -170.525 95.4139C-165.352 92.5741 -164.932 92.5491 -162.822 94.9536ZM58.8043 96.062C59.291 97.2876 59.7428 121.863 59.8064 150.675C59.905 194.474 59.576 203.129 57.7991 203.489C55.0367 204.049 53.6055 165.562 54.8199 123.354C55.6037 96.1323 56.4725 90.1828 58.8043 96.062ZM43.9644 95.4902C46.3387 99.2038 47.6425 136.245 46.1431 157.359C45.2941 169.317 44.5997 184.655 44.5997 191.447C44.5997 200.968 44.1206 203.791 42.5059 203.791C40.9261 203.791 40.1438 199.971 39.3145 188.206C38.0076 169.664 39.9012 93.832 41.6705 93.832C42.3497 93.832 43.3807 94.5782 43.9644 95.4902ZM-16.3229 102.099C-13.6212 106.646 -11.7563 110.698 -12.1763 111.104C-13.4605 112.346 -17.4146 108.413 -20.8865 102.438C-22.6998 99.3182 -24.8209 96.7642 -25.5971 96.7642C-26.3749 96.7642 -30.3744 99.1525 -34.4862 102.072C-38.5979 104.989 -42.4216 106.933 -42.9841 106.389C-43.5466 105.847 -43.3101 104.942 -42.461 104.382C-41.6105 103.821 -37.7549 101.217 -33.8934 98.5969C-24.0992 91.9524 -22.1146 92.3483 -16.3229 102.099ZM-83.0447 97.2261C-81.7636 100.154 -81.239 116.234 -81.239 152.572C-81.239 196.052 -81.5665 203.791 -83.4117 203.791C-84.6064 203.791 -85.8966 202.637 -86.2787 201.226C-87.4233 197.012 -87.1853 125.109 -85.9739 108.493C-84.9702 94.7307 -84.6594 93.5358 -83.0447 97.2261ZM-97.0508 96.3977C-94.023 102.922 -95.386 200.366 -98.5472 203.423C-99.0338 203.894 -99.9451 203.784 -100.57 203.178C-101.773 202.013 -102.486 98.7948 -101.311 95.6646C-100.338 93.0681 -98.4441 93.3936 -97.0508 96.3977ZM-110.72 97.4973C-108.849 103.242 -109.125 123.587 -111.506 155.409C-112.562 169.521 -113.514 186.126 -113.624 192.31C-113.78 201.145 -114.23 203.225 -115.723 202.026C-118.004 200.198 -118.263 186.125 -116.148 178.998C-115.335 176.258 -114.568 161.088 -114.441 145.286C-114.315 129.485 -113.749 111.279 -113.182 104.828C-112.285 94.5856 -111.973 93.656 -110.72 97.4973ZM31.658 100.142C32.9194 106.096 32.1841 125.622 29.2746 163.473C28.2831 176.375 27.5387 190.889 27.619 195.728C27.754 203.725 27.5675 204.266 25.5707 201.679C22.9827 198.326 22.6977 187.57 25.0037 180.323C25.8997 177.507 27.0019 159.698 27.4507 140.748C27.8995 121.798 28.7637 103.655 29.3717 100.43L30.4769 94.565L31.658 100.142ZM-17.9194 120.908C-11.4941 129.723 -14.6901 131.768 -21.8265 123.408L-27.0496 117.291L-32.9231 122.421C-41.4255 129.85 -43.5056 128.729 -35.6218 120.967C-31.9421 117.344 -27.5287 114.375 -25.8139 114.369C-23.8354 114.362 -20.9471 116.755 -17.9194 120.908ZM-159.699 120.297C-152.371 130.541 -155.217 132.53 -163.619 123.039L-168.912 117.058L-174.666 122.306C-182.971 129.881 -184.688 128.771 -176.755 120.955C-173.038 117.293 -168.682 114.383 -166.964 114.413C-165.104 114.447 -162.203 116.796 -159.699 120.297ZM-16.655 138.915C-13.0026 142.745 -10.0067 146.375 -9.99765 146.979C-9.95822 149.669 -14.1579 147.604 -20.0041 142.054L-26.3521 136.03L-34.8834 142.26C-39.5773 145.686 -43.7088 148.206 -44.0666 147.862C-44.9581 147 -26.7812 131.951 -24.8481 131.951C-23.9946 131.951 -20.3088 135.086 -16.655 138.915ZM-158.125 138.965C-154.197 142.824 -150.981 146.453 -150.981 147.029C-150.981 149.727 -155.46 147.539 -160.836 142.214C-164.092 138.989 -167.364 136.35 -168.104 136.35C-168.844 136.35 -172.236 138.654 -175.639 141.472C-179.043 144.289 -182.125 146.306 -182.491 145.953C-183.435 145.039 -168.862 131.951 -166.899 131.951C-166.003 131.951 -162.055 135.108 -158.125 138.965ZM-15.4967 156.845C-8.20712 164.647 -8.38907 167.77 -15.7302 160.838C-18.8928 157.852 -22.3769 155.409 -23.4715 155.409C-24.5677 155.409 -28.0229 157.369 -31.1492 159.764C-36.627 163.96 -44.852 167.882 -44.852 166.298C-44.852 165.14 -37.1106 158.698 -31.9648 155.573C-23.2789 150.3 -21.4824 150.438 -15.4967 156.845ZM-156.87 157.242C-148.851 165.726 -149.454 167.163 -158.052 160.055L-165.123 154.211L-172.972 159.941C-181.49 166.16 -182.82 166.675 -182.82 163.749C-182.82 161.044 -167.815 151.011 -163.768 151.011C-163.213 151.011 -160.11 153.814 -156.87 157.242ZM-17.6132 175.873C-11.2894 183.593 -11.8792 186.73 -18.3819 179.967C-21.2883 176.944 -24.2068 174.469 -24.8648 174.469C-25.5243 174.469 -28.3777 176.778 -31.2068 179.6C-34.0359 182.423 -37.7186 184.732 -39.3924 184.732C-41.9637 184.732 -41.5271 183.833 -36.5739 178.927C-33.3506 175.736 -28.8007 172.478 -26.4628 171.691C-22.5922 170.386 -21.8007 170.76 -17.6132 175.873ZM-158.825 175.995C-152.311 183.582 -153.363 186.956 -160.034 179.867C-162.828 176.898 -165.857 174.469 -166.765 174.469C-167.674 174.469 -170.322 176.778 -172.651 179.6C-175.133 182.609 -178.235 184.732 -180.15 184.732C-183.128 184.732 -182.956 184.27 -178.189 179.476C-173.891 175.151 -166.253 169.984 -164.323 170.097C-164.073 170.112 -161.598 172.765 -158.825 175.995ZM-14.5521 195.706C-7.84326 202.398 -9.56253 203.878 -16.8536 197.688L-22.5269 192.87L-32.8806 198.33C-44.3107 204.36 -46.2013 204.932 -43.2176 201.454C-40.2429 197.988 -26.3718 190.626 -22.7862 190.609C-21.0745 190.602 -17.3676 192.895 -14.5521 195.706ZM-155.552 195.706C-148.836 202.406 -150.954 204.347 -157.888 197.848L-163.234 192.838L-171.763 197.214C-182.67 202.813 -182.82 202.865 -182.82 201.012C-182.82 198.902 -167.678 190.627 -163.786 190.609C-162.075 190.602 -158.368 192.895 -155.552 195.706ZM49.4361 225.439C53.419 229.978 59.9292 241.911 58.4237 241.911C57.0683 241.911 55.0928 239.749 47.7365 230.226L44.9408 226.603L36.9144 232.036C32.5009 235.024 28.4999 237.09 28.0269 236.627C26.9671 235.592 33.9003 230.127 41.5356 225.977C46.8936 223.065 47.3272 223.036 49.4361 225.439ZM-90.9028 226.868C-89.4974 229.094 -86.7381 233.389 -84.7716 236.413C-82.8052 239.437 -81.8879 241.911 -82.7339 241.911C-84.9626 241.911 -89.8022 236.899 -92.5676 231.725C-93.8851 229.264 -95.6256 227.249 -96.4352 227.249C-97.2463 227.249 -101.351 229.641 -105.558 232.563C-109.765 235.486 -113.583 237.514 -114.04 237.069C-114.95 236.19 -104.21 228.251 -97.5829 224.904C-93.6789 222.932 -93.3226 223.037 -90.9028 226.868ZM128.745 225.783C129.664 227.116 130.438 248.905 130.711 281.129C131.099 327.062 130.858 334.276 128.936 334.276C125.675 334.276 125.297 329.871 125.227 291.026C125.15 248.568 126.551 222.6 128.745 225.783ZM115.423 228.245C118.235 237.993 115.914 334.276 112.866 334.276C109.866 334.276 109.587 322.737 110.459 234.705C110.559 224.572 113.326 220.973 115.423 228.245ZM101.521 227.982C103.278 233.315 102.965 253.273 100.601 286.627C99.6291 300.336 98.7437 316.611 98.6345 322.795C98.4889 331.061 97.9765 333.669 96.6984 332.645C93.8359 330.347 93.4084 322.427 95.5992 312.299C96.8803 306.38 97.74 291.897 97.8628 274.165C97.9719 258.441 98.5132 240.628 99.0651 234.58C99.9581 224.816 100.232 224.077 101.521 227.982ZM-12.4129 225.783C-11.9717 226.993 -11.4137 251.899 -11.1742 281.131C-10.8437 321.502 -11.1726 334.278 -12.5447 334.278C-13.5378 334.276 -14.7462 333.658 -15.2298 332.9C-15.7135 332.143 -16.0364 309.877 -15.9454 283.418C-15.856 256.96 -15.8393 233.766 -15.9091 231.875C-15.9788 229.985 -15.4012 227.346 -14.6264 226.01C-13.415 223.926 -13.1042 223.893 -12.4129 225.783ZM-26.337 227.616C-22.4951 234.137 -24.8254 335.105 -28.7886 333.84C-29.8074 333.514 -30.7489 326.557 -31.225 315.833C-32.2984 291.653 -31.0491 224.317 -29.5269 224.317C-28.8416 224.317 -27.4059 225.801 -26.337 227.616ZM-39.6349 228.715C-37.5851 236.559 -39.1543 278.99 -43.0508 321.081C-44.1166 332.589 -44.3456 333.227 -46.0451 329.416C-48.4224 324.081 -48.3436 320.665 -45.61 310.818C-44.0196 305.087 -43.3146 294.058 -43.1766 272.699C-43.069 256.169 -42.5308 238.355 -41.9789 233.114C-41.0192 223.989 -40.9191 223.802 -39.6349 228.715ZM-153.47 226.503C-152.993 227.707 -152.526 252.282 -152.433 281.116C-152.291 325.499 -152.597 333.609 -154.433 333.976C-156.225 334.334 -156.741 329.957 -157.397 308.805C-158.334 278.615 -157.097 224.317 -155.472 224.317C-154.849 224.317 -153.947 225.301 -153.47 226.503ZM-168.254 226.037C-166.138 229.349 -164.926 266.295 -166.245 287.36C-166.978 299.053 -167.595 314.393 -167.617 321.448C-167.649 331.319 -168.137 334.276 -169.737 334.276C-171.308 334.276 -172.082 330.305 -172.906 318.033C-174.19 298.865 -172.333 224.317 -170.571 224.317C-169.901 224.317 -168.859 225.091 -168.254 226.037ZM-180.735 230.365C-179.487 236.396 -179.784 259.586 -181.24 269.767C-182.069 275.564 -182.453 270.516 -182.606 251.807C-182.724 237.495 -182.563 225.783 -182.251 225.783C-181.939 225.783 -181.257 227.845 -180.735 230.365ZM52.5593 250.782C59.9262 261.08 57.1881 262.864 48.4203 253.48L42.7924 247.455L37.1888 252.747C29.0654 260.416 27.569 259.258 35.5029 251.44C39.2204 247.778 43.5763 244.868 45.294 244.899C47.1543 244.932 50.0547 247.281 52.5593 250.782ZM-88.7469 251.543C-86.124 255.229 -84.4002 258.651 -84.9156 259.149C-85.4296 259.646 -88.7681 257.286 -92.3326 253.903L-98.814 247.752L-103.969 252.895C-111.366 260.275 -112.84 259.245 -105.982 251.489C-98.3607 242.869 -94.91 242.88 -88.7469 251.543ZM54.5637 270.031C63.5528 279.325 60.989 281.777 51.5996 272.868C48.1034 269.55 44.6239 266.835 43.8674 266.835C43.1108 266.835 40.7487 268.399 38.6185 270.311C36.4884 272.221 32.6981 274.961 30.1964 276.4C27.5099 277.944 29.3717 275.648 34.7448 270.792C39.748 266.27 44.6012 262.54 45.5291 262.504C46.4569 262.467 50.5232 265.854 54.5637 270.031ZM-86.6455 270.128C-79.1361 278.429 -79.9655 281.613 -87.8145 274.62C-97.4374 266.046 -96.8658 266.11 -105.744 272.619C-114.679 279.169 -119.984 280.905 -111.639 274.548C-108.763 272.356 -104.475 268.735 -102.112 266.5C-99.7464 264.265 -96.8643 262.436 -95.7075 262.436C-94.5507 262.436 -90.4723 265.898 -86.6455 270.128ZM55.3884 287.727C63.4345 296.239 62.7917 297.654 54.0755 290.614L46.8739 284.798L39.3372 290.391C31.7732 296.005 26.4061 298.393 26.4061 296.143C26.4061 293.69 44.7892 281.496 48.49 281.496C49.0449 281.496 52.1485 284.299 55.3884 287.727ZM-85.98 288.061C-82.5384 291.671 -79.7229 294.993 -79.7229 295.443C-79.7229 296.984 -85.0294 293.477 -89.364 289.071L-93.6986 284.667L-103.484 291.145C-114.463 298.414 -118.483 299.541 -112.963 293.803C-109.632 290.338 -95.4785 281.543 -93.1816 281.509C-92.6631 281.502 -89.4216 284.45 -85.98 288.061ZM53.4326 306.48C59.9474 314.067 58.8953 317.441 52.2243 310.352C49.4301 307.383 46.4008 304.954 45.4927 304.954C44.5845 304.954 41.9358 307.263 39.6071 310.085C37.1252 313.094 34.0231 315.217 32.1083 315.217C29.1306 315.217 29.3019 314.755 34.0686 309.961C38.3669 305.636 46.0051 300.469 47.9352 300.582C48.1853 300.597 50.6596 303.25 53.4326 306.48ZM-87.9009 307.247C-84.8353 310.865 -82.8234 314.303 -83.4299 314.887C-84.0363 315.472 -86.5864 313.477 -89.0971 310.452C-91.6078 307.429 -94.5097 304.954 -95.5453 304.954C-96.5823 304.954 -99.6024 307.263 -102.259 310.085C-104.913 312.908 -108.357 315.217 -109.908 315.217C-112.203 315.217 -111.701 314.139 -107.216 309.431C-104.187 306.25 -99.8556 302.978 -97.592 302.158C-93.8047 300.787 -93.0315 301.192 -87.9009 307.247ZM56.7059 326.191C63.4391 332.907 61.2968 334.82 54.3302 328.312L48.9449 323.28L38.288 328.883C32.4267 331.963 27.243 334.108 26.767 333.647C25.6071 332.526 25.8512 332.337 36.1942 326.314C41.1353 323.436 46.6207 321.081 48.3824 321.081C50.1441 321.081 53.8905 323.38 56.7059 326.191ZM-85.1006 326.849C-78.1628 333.75 -79.544 334.719 -87.2459 328.352C-90.1327 325.966 -93.1149 324.014 -93.8699 324.014C-94.6265 324.014 -99.2658 326.375 -104.18 329.261C-115.729 336.046 -118.974 335.07 -108.34 328.009C-95.9864 319.806 -92.3629 319.625 -85.1006 326.849ZM121.355 357.353C122.761 359.579 125.52 363.875 127.486 366.898C129.453 369.922 130.37 372.396 129.524 372.396C127.295 372.396 122.456 367.384 119.69 362.21C118.373 359.749 116.552 357.734 115.642 357.734C114.734 357.734 110.626 360.123 106.514 363.042C102.402 365.959 98.6967 368.019 98.2812 367.616C97.3064 366.673 107.586 358.853 113.917 355.721C118.747 353.332 118.826 353.349 121.355 357.353ZM-162.822 355.924C-158.839 360.463 -152.329 372.396 -153.834 372.396C-155.19 372.396 -157.144 370.26 -164.544 360.683L-167.364 357.034L-174.426 361.938C-178.311 364.634 -181.884 366.458 -182.369 365.99C-183.45 364.943 -177.859 360.409 -170.525 356.384C-165.352 353.544 -164.932 353.519 -162.822 355.924ZM199.883 357.888C200.326 359.819 200.875 384.657 201.104 413.081C201.419 452.308 201.084 464.763 199.713 464.762C198.72 464.762 197.483 464.097 196.965 463.287C195.344 460.752 195.932 357.419 197.577 355.828C198.567 354.871 199.351 355.572 199.883 357.888ZM185.917 358.101C189.861 364.807 187.404 464.762 183.294 464.762C181.967 464.762 181.251 459.186 180.753 444.976C179.799 417.79 181.171 354.802 182.716 354.802C183.409 354.802 184.851 356.286 185.917 358.101ZM172.487 358.467C173.974 363.659 174.013 389.643 172.553 403.152C171.989 408.376 171.336 418.272 171.102 425.144C170.867 432.016 170.111 443.576 169.42 450.833C168.316 462.436 167.935 463.641 166.269 460.826C163.839 456.72 163.943 451.522 166.678 440.57C168.173 434.581 168.939 422.415 169.075 402.451C169.186 386.324 169.715 368.84 170.252 363.599C171.11 355.202 171.375 354.592 172.487 358.467ZM58.8043 357.032C59.291 358.258 59.7428 382.833 59.8064 411.645C59.905 455.444 59.576 464.099 57.7991 464.46C55.0367 465.02 53.6055 426.532 54.8199 384.324C55.6037 357.103 56.4725 351.153 58.8043 357.032ZM43.9644 356.46C46.3387 360.174 47.6425 397.216 46.1431 418.329C45.2941 430.287 44.5997 445.626 44.5997 452.417C44.5997 461.938 44.1206 464.762 42.5059 464.762C40.9261 464.762 40.1438 460.941 39.3145 449.177C38.0076 430.635 39.9012 354.802 41.6705 354.802C42.3497 354.802 43.3807 355.548 43.9644 356.46ZM-16.3229 363.07C-13.6212 367.616 -11.7563 371.668 -12.1763 372.075C-13.4605 373.316 -17.4146 369.383 -20.8865 363.408C-22.6998 360.288 -24.8209 357.734 -25.5971 357.734C-26.3749 357.734 -30.2638 360.044 -34.239 362.866C-41.944 368.336 -44.9748 369.474 -41.7136 365.675C-38.3659 361.774 -27.0405 354.802 -24.0522 354.802C-22.2177 354.802 -19.5174 357.69 -16.3229 363.07ZM-83.0447 358.196C-81.7636 361.124 -81.239 377.205 -81.239 413.542C-81.239 457.022 -81.5665 464.762 -83.4117 464.762C-84.6064 464.762 -85.8966 463.606 -86.2787 462.196C-87.4233 457.982 -87.1853 386.079 -85.9739 369.463C-84.9702 355.701 -84.6594 354.506 -83.0447 358.196ZM-97.0508 357.368C-94.023 363.892 -95.386 461.337 -98.5472 464.393C-99.0338 464.864 -99.9451 464.754 -100.57 464.149C-101.773 462.983 -102.486 359.765 -101.311 356.635C-100.338 354.038 -98.4441 354.364 -97.0508 357.368ZM-110.726 358.467C-108.849 364.206 -109.122 384.526 -111.506 416.379C-112.562 430.491 -113.514 447.096 -113.624 453.28C-113.78 462.115 -114.23 464.196 -115.723 462.996C-118.004 461.168 -118.263 447.096 -116.149 439.968C-115.337 437.229 -114.562 422.388 -114.43 406.99C-114.297 391.592 -113.733 373.385 -113.176 366.531C-112.305 355.786 -111.968 354.675 -110.726 358.467ZM31.658 361.112C32.9194 367.066 32.1841 386.592 29.2746 424.443C28.2831 437.345 27.5387 451.86 27.619 456.698C27.754 464.696 27.5675 465.237 25.5707 462.649C22.9827 459.296 22.6977 448.54 25.0037 441.293C25.8997 438.477 27.0019 420.668 27.4507 401.718C27.8995 382.768 28.7637 364.625 29.3717 361.4L30.4769 355.535L31.658 361.112ZM123.511 382.028C126.134 385.714 127.858 389.136 127.342 389.634C126.828 390.131 123.49 387.771 119.925 384.389L113.444 378.237L108.289 383.38C100.91 390.741 99.4987 389.734 106.248 381.925C113.75 373.246 117.278 373.268 123.511 382.028ZM-17.9194 381.879C-11.5002 390.686 -14.6719 392.561 -21.9751 384.277L-27.421 378.102L-32.6441 383.312C-35.5156 386.179 -38.7859 388.523 -39.9109 388.523C-41.0343 388.523 -39.024 385.557 -35.4429 381.931C-27.1542 373.539 -24.0052 373.529 -17.9194 381.879ZM-159.699 381.267C-152.423 391.439 -155.046 393.374 -163.639 384.176L-169.071 378.363L-174.642 383.443C-182.823 390.904 -184.584 389.64 -176.755 381.925C-173.038 378.263 -168.682 375.353 -166.964 375.384C-165.104 375.417 -162.203 377.766 -159.699 381.267ZM125.49 400.619C132.94 408.962 132.224 412.037 124.444 405.105C114.736 396.455 115.298 396.519 106.717 403.079C102.422 406.363 98.116 409.028 97.1487 409.002C96.1814 408.977 97.4367 407.496 99.9384 405.712C102.44 403.928 106.726 400.319 109.464 397.695C112.202 395.069 115.382 392.921 116.529 392.921C117.677 392.921 121.71 396.386 125.49 400.619ZM-16.7884 399.885C-13.0724 403.716 -10.0204 407.344 -10.0067 407.949C-9.94305 410.647 -14.1624 408.569 -20.0041 403.024L-26.3521 397L-34.8834 403.23C-39.5773 406.656 -43.7088 409.176 -44.0666 408.832C-44.9217 408.003 -26.8206 392.921 -24.9709 392.921C-24.1856 392.921 -20.5029 396.055 -16.7884 399.885ZM-158.125 399.935C-154.197 403.794 -150.981 407.423 -150.981 407.999C-150.981 410.697 -155.46 408.509 -160.836 403.184C-164.092 399.959 -167.364 397.32 -168.104 397.32C-168.844 397.32 -172.236 399.625 -175.639 402.442C-179.043 405.259 -182.142 407.26 -182.526 406.889C-183.452 405.993 -168.864 393.055 -166.843 392.98C-165.979 392.948 -162.055 396.078 -158.125 399.935ZM126.278 418.546C129.72 422.156 132.535 425.478 132.535 425.928C132.535 427.469 127.229 423.962 122.894 419.556L118.559 415.152L108.774 421.63C97.7946 428.899 93.7753 430.026 99.2955 424.288C102.626 420.823 116.78 412.028 119.076 411.994C119.595 411.987 122.836 414.935 126.278 418.546ZM-15.4496 418.06C-8.16617 426.289 -8.4967 428.28 -16.05 421.681C-19.3871 418.765 -22.8711 416.379 -23.7914 416.379C-24.7117 416.379 -28.0229 418.34 -31.1492 420.734C-36.627 424.93 -44.852 428.852 -44.852 427.268C-44.852 426.11 -37.1106 419.668 -31.9648 416.544C-23.1395 411.185 -21.3929 411.345 -15.4496 418.06ZM-156.932 418.146C-148.857 426.688 -149.427 428.154 -158.052 421.026L-165.123 415.182L-172.972 420.911C-181.414 427.076 -182.867 427.655 -182.736 424.81C-182.624 422.37 -175.238 416.841 -168.395 414.078L-162.884 411.851L-156.932 418.146ZM124.033 437.32C126.912 440.673 128.868 444.045 128.376 444.813C127.885 445.582 125.379 443.786 122.808 440.824C120.236 437.863 117.389 435.439 116.481 435.439C115.573 435.439 112.656 437.748 109.999 440.57C107.345 443.393 103.873 445.702 102.287 445.702C99.8701 445.702 100.273 444.764 104.766 439.924C107.716 436.747 112.08 433.489 114.463 432.686C118.455 431.34 119.208 431.705 124.033 437.32ZM-17.6132 436.844C-11.2894 444.563 -11.8792 447.7 -18.3819 440.937C-21.2883 437.914 -24.2068 435.439 -24.8648 435.439C-25.5243 435.439 -28.3777 437.748 -31.2068 440.57C-34.0359 443.393 -37.7186 445.702 -39.3924 445.702C-41.9637 445.702 -41.5271 444.803 -36.5739 439.897C-33.3506 436.706 -28.8007 433.448 -26.4628 432.661C-22.5922 431.356 -21.8007 431.73 -17.6132 436.844ZM-158.049 437.726C-152.02 444.745 -153.772 447.492 -160.034 440.837C-162.828 437.868 -165.857 435.439 -166.765 435.439C-167.674 435.439 -170.322 437.748 -172.651 440.57C-175.224 443.69 -178.197 445.689 -180.232 445.668C-183.134 445.639 -182.633 444.762 -176.464 439.071C-167.854 431.126 -163.965 430.841 -158.049 437.726ZM127.157 457.334C134.095 464.235 132.714 465.204 125.012 458.837C122.125 456.452 119.143 454.499 118.388 454.499C117.632 454.499 112.992 456.861 108.078 459.746C96.5134 466.54 92.849 465.443 103.744 458.45C116.434 450.301 119.921 450.135 127.157 457.334ZM-14.5521 456.676C-7.96606 463.247 -9.50342 464.898 -16.5989 458.875C-22.5891 453.789 -24.557 453.868 -33.2096 459.547C-36.1054 461.447 -40.0807 463.43 -42.0426 463.954C-45.3189 464.829 -45.2386 464.596 -41.0616 461.089C-35.3382 456.284 -26.1262 451.566 -22.4678 451.566C-20.9305 451.566 -17.3676 453.865 -14.5521 456.676ZM-155.552 456.676C-148.836 463.376 -150.954 465.317 -157.888 458.818L-163.234 453.808L-171.763 458.184C-182.67 463.784 -182.82 463.835 -182.82 461.982C-182.82 459.872 -167.678 451.597 -163.786 451.58C-162.075 451.572 -158.368 453.865 -155.552 456.676ZM49.4361 486.409C53.419 490.948 59.9292 502.881 58.4237 502.881C57.0683 502.881 55.0928 500.72 47.7365 491.196L44.9408 487.573L36.9144 493.006C32.5009 495.994 28.4999 498.06 28.0269 497.597C26.9671 496.562 33.9003 491.098 41.5356 486.947C46.8936 484.035 47.3272 484.006 49.4361 486.409ZM-90.9286 487.799C-89.508 490.046 -86.7381 494.36 -84.7716 497.383C-82.8052 500.407 -81.8879 502.881 -82.7339 502.881C-84.9626 502.881 -89.8022 497.87 -92.5676 492.696C-93.8851 490.234 -95.6681 488.22 -96.5307 488.22C-97.3934 488.22 -101.226 490.529 -105.048 493.351C-108.871 496.173 -112.752 498.456 -113.675 498.422C-115.984 498.34 -106.889 490.982 -99.5433 486.989L-93.5121 483.711L-90.9286 487.799ZM271.064 488.586C271.566 490.401 271.987 502.275 271.998 514.976C272.019 537.597 271.952 538.068 268.776 538.068C265.753 538.068 265.597 537.546 266.488 530.371C267.014 526.138 267.451 514.261 267.457 503.98C267.469 486.643 268.868 480.669 271.064 488.586ZM256.177 486.875C257.608 489.112 259.99 530.573 258.924 534.678C258.295 537.104 256.953 538.068 254.203 538.068C250.402 538.068 250.372 537.971 251.336 529.055C251.871 524.1 252.309 512.224 252.309 502.665C252.309 486.724 253.354 482.458 256.177 486.875ZM193.249 489.319C194.402 491.536 196.639 495.203 198.218 497.468C199.798 499.732 200.693 501.969 200.205 502.441C198.807 503.793 194.965 500.076 191.372 493.893C189.558 490.773 187.272 488.22 186.293 488.22C185.312 488.22 181.515 490.523 177.854 493.336C170.896 498.685 167.129 500.141 170.544 496.16C173.924 492.222 185.23 485.287 188.27 485.287C189.895 485.287 192.066 487.047 193.249 489.319ZM129.087 487.643C129.733 489.17 130.261 500.965 130.261 513.853C130.261 535.185 130.018 537.333 127.553 537.795C125.006 538.273 124.901 536.744 125.793 512.161C126.314 497.784 127.004 485.761 127.329 485.444C127.652 485.127 128.443 486.117 129.087 487.643ZM115.141 487.791C115.786 489.236 116.632 501.14 117.022 514.243L117.73 538.068H113.656H109.582L110.157 512.136C110.709 487.318 112.036 480.833 115.141 487.791ZM101.471 488.22C103.025 492.018 102.952 530.57 101.383 535.355C97.9795 545.721 96.6302 523.017 99.015 495.55C99.8201 486.283 100.207 485.13 101.471 488.22ZM-12.5311 486.243C-11.9626 486.793 -11.4971 498.677 -11.4971 512.655C-11.4971 534.467 -11.8246 538.068 -13.8122 538.068C-15.8029 538.068 -16.1062 534.611 -15.9712 513.416C-15.8257 490.31 -15.007 483.848 -12.5311 486.243ZM-26.4128 488.586C-25.2484 490.642 -24.3039 500.583 -23.9051 514.976L-23.2638 538.068H-27.2361H-31.2068V511.677C-31.2068 485.525 -30.3866 481.571 -26.4128 488.586ZM-39.6365 489.686C-38.1931 495.214 -38.2113 527.413 -39.6622 534.036C-42.8158 548.441 -44.5502 518.532 -41.9789 494.084C-41.0192 484.96 -40.9191 484.773 -39.6365 489.686ZM-153.417 487.607C-152.911 488.882 -152.497 500.758 -152.497 513.997C-152.497 537.582 -152.562 538.068 -155.728 538.068C-158.618 538.068 -158.859 537.487 -158.019 532.57C-157.502 529.547 -157.071 517.67 -157.062 506.18C-157.047 487.177 -155.902 481.343 -153.417 487.607ZM-168.268 486.986C-166.765 489.337 -164.438 529.076 -165.512 534.036C-166.188 537.165 -167.252 538.068 -170.265 538.068C-174.056 538.068 -174.123 537.892 -173.189 530.371C-172.663 526.138 -172.227 514.261 -172.22 503.98C-172.208 486.693 -171.206 482.387 -168.268 486.986ZM244.095 493.637C245.54 502.964 243.745 535.21 241.669 537.201C240.455 538.365 240.089 531.708 240.329 512.777C240.652 487.101 242.01 480.198 244.095 493.637ZM-180.735 491.335C-179.487 497.367 -179.784 520.556 -181.24 530.737C-182.069 536.534 -182.453 531.486 -182.606 512.777C-182.724 498.465 -182.563 486.753 -182.251 486.753C-181.939 486.753 -181.257 488.815 -180.735 491.335ZM194.339 512.364C200.758 521.171 197.586 523.046 190.283 514.762L184.837 508.587L179.614 513.798C176.742 516.664 173.44 519.008 172.279 519.008C171.116 519.008 173.092 516.039 176.668 512.411C184.987 503.969 188.213 503.96 194.339 512.364ZM52.5593 511.752C59.8716 521.976 57.7051 523.451 48.3779 514.598L42.186 508.722L37.0311 513.865C34.196 516.693 31.185 519.008 30.342 519.008C29.4975 519.008 31.8202 516.039 35.5029 512.411C39.2204 508.748 43.5763 505.838 45.294 505.869C47.1543 505.902 50.0547 508.251 52.5593 511.752ZM-88.7469 512.513C-86.124 516.199 -84.4002 519.621 -84.9156 520.119C-85.4296 520.616 -88.7545 518.269 -92.3038 514.9L-98.7564 508.776L-104.351 514.185C-107.427 517.161 -110.27 519.281 -110.667 518.895C-112.044 517.564 -99.1915 505.813 -96.3594 505.813C-94.6871 505.813 -91.5487 508.575 -88.7469 512.513ZM195.444 530.371C200.458 535.561 201.564 537.464 199.783 537.841C198.469 538.118 194.821 535.917 191.679 532.951L185.965 527.556L178.137 532.993C173.833 535.984 170.059 538.185 169.753 537.883C168.96 537.1 185.528 523.406 187.269 523.406C188.063 523.406 191.743 526.54 195.444 530.371ZM53.3811 529.693C56.8894 533.15 59.761 536.449 59.761 537.024C59.761 539.355 55.5158 537.835 52.0651 534.268C45.3122 527.286 43.6217 527.13 36.6991 532.86C33.2393 535.725 29.7189 538.068 28.8774 538.068C26.8913 538.068 43.3367 523.56 45.4214 523.472C46.2902 523.436 49.8712 526.236 53.3811 529.693ZM-87.4445 530.371C-80.9328 537.732 -81.7075 540.842 -88.562 534.857C-97.5374 527.022 -97.2266 527.062 -104.465 532.797C-114.23 540.535 -114.987 539.217 -105.646 530.737C-101.205 526.705 -96.6793 523.406 -95.5877 523.406C-94.4961 523.406 -90.8316 526.54 -87.4445 530.371Z" fill="black"/>
</g>
<g clip-path="url(#clip1_13343_7659)">
<path fill-rule="evenodd" clip-rule="evenodd" d="M-25.0043 812.908C-23.6625 808.182 -23.6519 801.539 -24.9619 785.418C-25.9109 773.725 -26.6811 759.981 -26.6735 754.874C-26.6629 748.095 -27.1693 745.752 -28.5536 746.195C-32.8867 747.58 -33.0929 819.139 -28.7643 819.139C-27.6697 819.139 -25.9792 816.335 -25.0043 812.908ZM-86.6455 809.981C-79.1361 801.68 -79.9655 798.496 -87.8145 805.489C-97.4374 814.063 -96.8658 813.998 -105.744 807.49C-114.679 800.94 -119.984 799.204 -111.639 805.561C-108.763 807.753 -104.475 811.374 -102.112 813.608C-99.7464 815.844 -96.8643 817.673 -95.7075 817.673C-94.5507 817.673 -90.4723 814.211 -86.6455 809.981ZM-154.442 815.975C-153.195 814.52 -152.576 803.658 -152.408 780.225C-152.203 751.844 -152.509 746.498 -154.366 746.136C-156.212 745.775 -156.723 750.748 -157.526 776.925C-158.525 809.497 -157.714 819.785 -154.442 815.975ZM-40.91 788.717C-41.383 779.241 -42.3185 765.882 -42.9886 759.028C-44.1591 747.033 -44.2804 746.731 -46.2225 750.964C-47.8857 754.587 -47.8994 757.042 -46.2999 764.892C-45.2325 770.133 -44.0863 781.513 -43.7527 790.183C-43.3919 799.55 -42.5186 805.944 -41.5983 805.944C-40.5825 805.944 -40.346 800.007 -40.91 788.717ZM-167.248 795.314C-165.792 786.145 -167.981 745.832 -169.934 745.832C-173.291 745.832 -175.059 787.138 -172.058 795.462C-169.924 801.384 -168.201 801.331 -167.248 795.314ZM-86.0103 792.078C-82.552 788.451 -79.7229 785.116 -79.7229 784.666C-79.7229 783.125 -85.0294 786.632 -89.364 791.037L-93.6986 795.442L-103.484 788.964C-108.866 785.4 -114.015 782.486 -114.924 782.486C-119.107 782.486 -102.3 795.648 -95.4861 797.71C-92.9936 798.463 -90.9226 797.233 -86.0103 792.078ZM-11.1317 765.259C-10.7042 754.977 -10.5829 746.319 -10.8618 746.017C-11.1393 745.717 -12.4189 745.86 -13.7061 746.338C-16.9673 747.549 -17.2281 783.952 -13.976 783.952C-12.3765 783.952 -11.7306 779.709 -11.1317 765.259ZM-88.101 773.335C-85.1613 770.015 -82.7552 766.755 -82.7552 766.094C-82.7552 763.468 -85.6313 765.15 -89.4747 770.023C-91.7003 772.846 -94.4021 775.155 -95.4755 775.155C-96.5504 775.155 -99.6024 772.846 -102.259 770.023C-104.913 767.201 -108.385 764.892 -109.971 764.892C-112.388 764.892 -111.985 765.83 -107.492 770.67C-104.542 773.847 -100.176 777.106 -97.7876 777.911C-93.7956 779.256 -93.0148 778.888 -88.101 773.335ZM-85.1006 753.26C-78.1204 746.318 -79.2271 745.286 -86.7775 751.697C-89.6263 754.116 -92.7737 756.095 -93.7698 756.095C-94.7675 756.095 -99.5341 753.736 -104.365 750.852C-115.778 744.041 -119.386 745.165 -108.514 752.144C-95.8242 760.293 -92.3371 760.458 -85.1006 753.26ZM-162.822 724.185C-158.839 719.646 -152.329 707.713 -153.834 707.713C-155.19 707.713 -157.144 709.849 -164.544 719.426L-167.364 723.075L-174.426 718.171C-178.311 715.475 -181.884 713.651 -182.369 714.119C-183.45 715.165 -177.859 719.7 -170.525 723.725C-165.352 726.565 -164.932 726.59 -162.822 724.185ZM58.8043 723.077C59.291 721.851 59.7428 697.276 59.8065 668.464C59.905 624.665 59.576 616.01 57.7991 615.649C55.0367 615.089 53.6055 653.577 54.8199 695.785C55.6037 723.006 56.4725 728.956 58.8043 723.077ZM43.9644 723.648C46.3387 719.935 47.6426 682.893 46.1431 661.779C45.2941 649.822 44.5997 634.483 44.5997 627.692C44.5997 618.171 44.1206 615.347 42.5059 615.347C40.9261 615.347 40.1438 619.168 39.3145 630.932C38.0076 649.474 39.9012 725.307 41.6705 725.307C42.3497 725.307 43.3807 724.56 43.9644 723.648ZM-16.3229 717.039C-13.6212 712.493 -11.7563 708.44 -12.1763 708.034C-13.4605 706.792 -17.4145 710.726 -20.8865 716.701C-22.6998 719.82 -24.8209 722.374 -25.5971 722.374C-26.3749 722.374 -30.3744 719.986 -34.4862 717.067C-38.5979 714.149 -42.4216 712.205 -42.9841 712.749C-43.5466 713.292 -43.31 714.196 -42.461 714.756C-41.6105 715.318 -37.7549 717.922 -33.8934 720.542C-24.0992 727.186 -22.1146 726.79 -16.3229 717.039ZM-83.0447 721.913C-81.7636 718.985 -81.239 702.904 -81.239 666.566C-81.239 623.087 -81.5665 615.347 -83.4116 615.347C-84.6063 615.347 -85.8966 616.501 -86.2786 617.913C-87.4233 622.127 -87.1853 694.03 -85.9739 710.645C-84.9702 724.408 -84.6594 725.603 -83.0447 721.913ZM-97.0507 722.741C-94.023 716.217 -95.386 618.772 -98.5472 615.715C-99.0338 615.245 -99.9451 615.355 -100.57 615.96C-101.773 617.126 -102.486 720.344 -101.311 723.474C-100.338 726.071 -98.4441 725.745 -97.0507 722.741ZM-110.72 721.641C-108.849 715.897 -109.125 695.552 -111.506 663.729C-112.562 649.618 -113.514 633.013 -113.624 626.829C-113.78 617.994 -114.23 615.913 -115.723 617.113C-118.004 618.941 -118.263 633.014 -116.148 640.141C-115.335 642.881 -114.568 658.051 -114.441 673.853C-114.315 689.653 -113.749 707.86 -113.182 714.311C-112.285 724.553 -111.972 725.483 -110.72 721.641ZM31.658 718.996C32.9194 713.043 32.1841 693.517 29.2746 655.666C28.2831 642.764 27.5387 628.249 27.619 623.411C27.754 615.413 27.5675 614.872 25.5708 617.46C22.9827 620.813 22.6977 631.569 25.0037 638.816C25.8997 641.632 27.002 659.441 27.4507 678.391C27.8995 697.34 28.7637 715.484 29.3717 718.709L30.4769 724.574L31.658 718.996ZM-17.9194 698.23C-11.4941 689.416 -14.6901 687.371 -21.8265 695.731L-27.0496 701.847L-32.9231 696.717C-41.4255 689.288 -43.5056 690.41 -35.6218 698.172C-31.9421 701.794 -27.5286 704.763 -25.8139 704.769C-23.8353 704.777 -20.9471 702.384 -17.9194 698.23ZM-159.699 698.842C-152.371 688.598 -155.217 686.608 -163.619 696.1L-168.912 702.08L-174.666 696.833C-182.971 689.258 -184.688 690.367 -176.755 698.183C-173.038 701.846 -168.682 704.756 -166.964 704.725C-165.104 704.691 -162.203 702.343 -159.699 698.842ZM-16.655 680.223C-13.0026 676.394 -10.0067 672.764 -9.99764 672.16C-9.95821 669.469 -14.1579 671.535 -20.0041 677.084L-26.3521 683.109L-34.8834 676.879C-39.5773 673.453 -43.7088 670.932 -44.0666 671.277C-44.9581 672.139 -26.7812 687.187 -24.8481 687.187C-23.9946 687.187 -20.3088 684.053 -16.655 680.223ZM-158.125 680.173C-154.197 676.315 -150.981 672.686 -150.981 672.11C-150.981 669.412 -155.46 671.6 -160.836 676.925C-164.092 680.15 -167.364 682.789 -168.104 682.789C-168.844 682.789 -172.236 680.484 -175.639 677.666C-179.043 674.85 -182.125 672.833 -182.491 673.186C-183.435 674.099 -168.862 687.187 -166.899 687.187C-166.003 687.187 -162.055 684.031 -158.125 680.173ZM-15.4967 662.294C-8.20711 654.491 -8.38905 651.369 -15.7301 658.3C-18.8928 661.287 -22.3768 663.729 -23.4715 663.729C-24.5676 663.729 -28.0229 661.769 -31.1492 659.375C-36.6269 655.179 -44.8519 651.257 -44.8519 652.841C-44.8519 653.999 -37.1106 660.441 -31.9648 663.565C-23.2789 668.839 -21.4823 668.701 -15.4967 662.294ZM-156.87 661.897C-148.851 653.412 -149.454 651.976 -158.052 659.083L-165.123 664.927L-172.972 659.198C-181.49 652.978 -182.82 652.464 -182.82 655.39C-182.82 658.095 -167.815 668.128 -163.768 668.128C-163.213 668.128 -160.11 665.325 -156.87 661.897ZM-17.6131 643.265C-11.2894 635.546 -11.8792 632.409 -18.3819 639.172C-21.2883 642.195 -24.2068 644.67 -24.8648 644.67C-25.5243 644.67 -28.3777 642.361 -31.2068 639.538C-34.0359 636.716 -37.7186 634.407 -39.3923 634.407C-41.9637 634.407 -41.5271 635.306 -36.5739 640.211C-33.3506 643.403 -28.8007 646.661 -26.4628 647.448C-22.5921 648.753 -21.8007 648.379 -17.6131 643.265ZM-158.825 643.144C-152.311 635.556 -153.363 632.183 -160.034 639.272C-162.828 642.24 -165.857 644.67 -166.765 644.67C-167.674 644.67 -170.322 642.361 -172.651 639.538C-175.133 636.53 -178.235 634.407 -180.15 634.407C-183.127 634.407 -182.956 634.869 -178.189 639.663C-173.891 643.988 -166.253 649.155 -164.323 649.042C-164.073 649.027 -161.598 646.373 -158.825 643.144ZM-14.5521 623.433C-7.84324 616.74 -9.56251 615.261 -16.8536 621.451L-22.5269 626.268L-32.8806 620.809C-44.3107 614.778 -46.2013 614.207 -43.2175 617.684C-40.2429 621.15 -26.3718 628.513 -22.7862 628.529C-21.0745 628.537 -17.3676 626.244 -14.5521 623.433ZM-155.552 623.433C-148.836 616.733 -150.954 614.792 -157.888 621.291L-163.234 626.301L-171.763 621.924C-182.67 616.325 -182.82 616.274 -182.82 618.127C-182.82 620.237 -167.678 628.512 -163.786 628.529C-162.075 628.537 -158.368 626.244 -155.552 623.433ZM49.4361 593.7C53.419 589.161 59.9293 577.228 58.4237 577.228C57.0683 577.228 55.0928 579.389 47.7366 588.913L44.9408 592.536L36.9144 587.102C32.501 584.114 28.4999 582.049 28.0269 582.512C26.9671 583.547 33.9004 589.011 41.5356 593.162C46.8936 596.074 47.3272 596.103 49.4361 593.7ZM-90.9028 592.271C-89.4974 590.045 -86.738 585.749 -84.7716 582.726C-82.8052 579.701 -81.8879 577.228 -82.7339 577.228C-84.9626 577.228 -89.8021 582.239 -92.5675 587.413C-93.8851 589.875 -95.6256 591.889 -96.4352 591.889C-97.2463 591.889 -101.351 589.498 -105.558 586.576C-109.765 583.653 -113.583 581.625 -114.04 582.069C-114.95 582.949 -104.21 590.888 -97.5829 594.235C-93.6789 596.207 -93.3226 596.101 -90.9028 592.271ZM128.745 593.355C129.664 592.023 130.438 570.233 130.711 538.009C131.099 492.077 130.858 484.862 128.936 484.862C125.675 484.862 125.297 489.268 125.227 528.113C125.15 570.57 126.551 596.538 128.745 593.355ZM115.423 590.894C118.235 581.146 115.914 484.862 112.866 484.862C109.866 484.862 109.587 496.402 110.459 584.434C110.559 594.566 113.326 598.166 115.423 590.894ZM101.521 591.156C103.278 585.824 102.965 565.866 100.601 532.511C99.6291 518.803 98.7437 502.528 98.6345 496.343C98.489 488.077 97.9765 485.469 96.6984 486.494C93.836 488.791 93.4084 496.711 95.5992 506.839C96.8804 512.758 97.74 527.242 97.8628 544.973C97.972 560.698 98.5132 578.511 99.0651 584.559C99.9581 594.323 100.233 595.062 101.521 591.156ZM-12.4129 593.355C-11.9717 592.146 -11.4137 567.239 -11.1741 538.008C-10.8436 497.637 -11.1726 484.861 -12.5447 484.861C-13.5378 484.862 -14.7462 485.481 -15.2298 486.239C-15.7134 486.995 -16.0364 509.261 -15.9454 535.721C-15.856 562.178 -15.8393 585.372 -15.909 587.264C-15.9788 589.154 -15.4011 591.793 -14.6264 593.128C-13.415 595.213 -13.1042 595.245 -12.4129 593.355ZM-26.337 591.523C-22.4951 585.001 -24.8254 484.034 -28.7885 485.299C-29.8074 485.625 -30.7489 492.581 -31.2249 503.306C-32.2984 527.485 -31.0491 594.822 -29.5269 594.822C-28.8416 594.822 -27.4058 593.338 -26.337 591.523ZM-39.6349 590.423C-37.5851 582.579 -39.1543 540.148 -43.0508 498.057C-44.1166 486.55 -44.3455 485.912 -46.0451 489.722C-48.4224 495.058 -48.3436 498.474 -45.61 508.32C-44.0196 514.051 -43.3146 525.081 -43.1766 546.439C-43.069 562.97 -42.5307 580.783 -41.9789 586.025C-41.0191 595.15 -40.9191 595.336 -39.6349 590.423ZM-153.47 592.636C-152.993 591.432 -152.526 566.857 -152.433 538.022C-152.291 493.64 -152.597 485.529 -154.433 485.163C-156.225 484.805 -156.741 489.181 -157.397 510.333C-158.334 540.524 -157.097 594.822 -155.472 594.822C-154.849 594.822 -153.947 593.838 -153.47 592.636ZM-168.254 593.102C-166.138 589.79 -164.926 552.843 -166.245 531.778C-166.978 520.086 -167.595 504.746 -167.617 497.691C-167.649 487.819 -168.137 484.862 -169.737 484.862C-171.308 484.862 -172.082 488.834 -172.906 501.105C-174.19 520.274 -172.333 594.822 -170.571 594.822C-169.901 594.822 -168.859 594.047 -168.254 593.102ZM-180.735 588.774C-179.487 582.742 -179.784 559.552 -181.24 549.372C-182.069 543.575 -182.453 548.622 -182.606 567.332C-182.724 581.644 -182.563 593.355 -182.251 593.355C-181.939 593.355 -181.257 591.294 -180.735 588.774ZM52.5594 568.357C59.9262 558.059 57.1881 556.274 48.4203 565.659L42.7925 571.683L37.1888 566.392C29.0654 558.723 27.569 559.881 35.5029 567.698C39.2205 571.361 43.5763 574.271 45.2941 574.24C47.1543 574.206 50.0547 571.858 52.5594 568.357ZM-88.7469 567.596C-86.124 563.91 -84.4002 560.488 -84.9156 559.989C-85.4296 559.492 -88.7681 561.853 -92.3325 565.235L-98.814 571.387L-103.969 566.244C-111.366 558.863 -112.84 559.894 -105.982 567.65C-98.3607 576.269 -94.91 576.259 -88.7469 567.596ZM54.5637 549.108C63.5528 539.814 60.9891 537.361 51.5997 546.271C48.1035 549.589 44.6239 552.304 43.8674 552.304C43.1108 552.304 40.7487 550.74 38.6186 548.828C36.4884 546.917 32.6981 544.177 30.1965 542.739C27.5099 541.195 29.3717 543.491 34.7449 548.347C39.7481 552.868 44.6012 556.598 45.5291 556.635C46.457 556.672 50.5232 553.285 54.5637 549.108ZM-86.6455 549.011C-79.1361 540.71 -79.9655 537.525 -87.8145 544.519C-97.4374 553.093 -96.8658 553.028 -105.744 546.52C-114.679 539.969 -119.984 538.234 -111.639 544.591C-108.763 546.783 -104.475 550.404 -102.112 552.638C-99.7464 554.874 -96.8642 556.702 -95.7074 556.702C-94.5506 556.702 -90.4722 553.241 -86.6455 549.011ZM55.3885 531.412C63.4346 522.899 62.7917 521.485 54.0755 528.525L46.8739 534.341L39.3372 528.748C31.7732 523.134 26.4061 520.746 26.4061 522.996C26.4061 525.449 44.7892 537.643 48.4901 537.643C49.045 537.643 52.1485 534.839 55.3885 531.412ZM-85.98 531.077C-82.5383 527.468 -79.7229 524.146 -79.7229 523.695C-79.7229 522.155 -85.0293 525.662 -89.364 530.067L-93.6986 534.471L-103.484 527.994C-114.463 520.725 -118.483 519.598 -112.963 525.336C-109.632 528.801 -95.4785 537.596 -93.1816 537.63C-92.663 537.637 -89.4216 534.688 -85.98 531.077ZM53.4327 512.658C59.9475 505.071 58.8953 501.698 52.2243 508.786C49.4301 511.755 46.4009 514.185 45.4927 514.185C44.5845 514.185 41.9359 511.876 39.6071 509.053C37.1252 506.045 34.0232 503.922 32.1083 503.922C29.1306 503.922 29.302 504.384 34.0687 509.178C38.3669 513.503 46.0051 518.67 47.9352 518.557C48.1853 518.542 50.6597 515.888 53.4327 512.658ZM-87.9009 511.892C-84.8353 508.273 -82.8234 504.835 -83.4298 504.252C-84.0363 503.667 -86.5864 505.662 -89.0971 508.687C-91.6078 511.71 -94.5097 514.185 -95.5452 514.185C-96.5822 514.185 -99.6024 511.876 -102.259 509.053C-104.913 506.231 -108.357 503.922 -109.908 503.922C-112.203 503.922 -111.701 504.999 -107.216 509.707C-104.187 512.889 -99.8556 516.161 -97.592 516.981C-93.8047 518.351 -93.0315 517.947 -87.9009 511.892ZM56.706 492.948C63.4391 486.232 61.2968 484.318 54.3302 490.826L48.9449 495.858L38.2881 490.256C32.4267 487.176 27.2431 485.031 26.767 485.491C25.6072 486.613 25.8512 486.802 36.1943 492.825C41.1353 495.703 46.6207 498.057 48.3824 498.057C50.1442 498.057 53.8905 495.758 56.706 492.948ZM-85.1006 492.29C-78.1628 485.389 -79.544 484.419 -87.2459 490.787C-90.1326 493.172 -93.1148 495.125 -93.8699 495.125C-94.6264 495.125 -99.2658 492.763 -104.18 489.878C-115.729 483.093 -118.974 484.069 -108.34 491.13C-95.9864 499.333 -92.3629 499.513 -85.1006 492.29ZM121.355 461.785C122.761 459.56 125.52 455.264 127.486 452.241C129.453 449.216 130.37 446.743 129.524 446.743C127.295 446.743 122.456 451.754 119.691 456.928C118.373 459.39 116.552 461.404 115.642 461.404C114.734 461.404 110.626 459.016 106.514 456.097C102.402 453.179 98.6967 451.119 98.2813 451.523C97.3064 452.465 107.586 460.286 113.917 463.417C118.747 465.807 118.826 465.789 121.355 461.785ZM-162.822 463.215C-158.839 458.676 -152.329 446.743 -153.834 446.743C-155.19 446.743 -157.144 448.879 -164.544 458.456L-167.364 462.105L-174.426 457.201C-178.311 454.505 -181.884 452.681 -182.369 453.148C-183.45 454.195 -177.859 458.73 -170.525 462.755C-165.352 465.594 -164.932 465.619 -162.822 463.215ZM199.883 461.25C200.326 459.319 200.875 434.482 201.104 406.058C201.419 366.83 201.084 354.376 199.713 354.377C198.72 354.377 197.483 355.041 196.965 355.852C195.344 358.387 195.932 461.719 197.577 463.31C198.567 464.268 199.351 463.567 199.883 461.25ZM185.917 461.038C189.862 454.332 187.404 354.377 183.294 354.377C181.967 354.377 181.251 359.953 180.753 374.162C179.799 401.349 181.171 464.337 182.716 464.337C183.409 464.337 184.851 462.853 185.917 461.038ZM172.487 460.671C173.974 455.48 174.013 429.496 172.553 415.987C171.989 410.763 171.336 400.867 171.102 393.995C170.867 387.123 170.111 375.563 169.42 368.305C168.316 356.702 167.935 355.497 166.269 358.312C163.839 362.419 163.943 367.616 166.678 378.568C168.173 384.557 168.939 396.723 169.075 416.687C169.186 432.815 169.715 450.298 170.252 455.54C171.11 463.936 171.375 464.546 172.487 460.671ZM58.8043 462.107C59.291 460.881 59.7428 436.306 59.8065 407.493C59.905 363.694 59.576 355.04 57.7991 354.679C55.0367 354.119 53.6055 392.606 54.8199 434.815C55.6038 462.036 56.4725 467.986 58.8043 462.107ZM43.9644 462.678C46.3387 458.965 47.6426 421.923 46.1431 400.809C45.2941 388.852 44.5997 373.513 44.5997 366.722C44.5997 357.201 44.1206 354.377 42.5059 354.377C40.9261 354.377 40.1438 358.198 39.3145 369.962C38.0076 388.504 39.9012 464.336 41.6705 464.336C42.3497 464.336 43.3807 463.59 43.9644 462.678ZM-16.3229 456.069C-13.6212 451.523 -11.7563 447.47 -12.1763 447.064C-13.4604 445.822 -17.4145 449.756 -20.8864 455.73C-22.6997 458.85 -24.8208 461.404 -25.5971 461.404C-26.3748 461.404 -30.2637 459.095 -34.239 456.273C-41.944 450.803 -44.9747 449.665 -41.7135 453.464C-38.3659 457.365 -27.0404 464.336 -24.0522 464.336C-22.2177 464.336 -19.5174 461.448 -16.3229 456.069ZM-83.0447 460.942C-81.7636 458.015 -81.239 441.934 -81.239 405.596C-81.239 362.117 -81.5665 354.377 -83.4116 354.377C-84.6063 354.377 -85.8966 355.532 -86.2786 356.943C-87.4233 361.156 -87.1853 433.06 -85.9739 449.675C-84.9702 463.438 -84.6594 464.633 -83.0447 460.942ZM-97.0507 461.771C-94.023 455.246 -95.386 357.802 -98.5471 354.745C-99.0338 354.275 -99.945 354.384 -100.57 354.99C-101.773 356.156 -102.486 459.374 -101.311 462.504C-100.338 465.1 -98.444 464.775 -97.0507 461.771ZM-110.726 460.671C-108.849 454.933 -109.122 434.612 -111.506 402.759C-112.562 388.648 -113.514 372.042 -113.623 365.858C-113.78 357.023 -114.23 354.943 -115.723 356.142C-118.004 357.971 -118.263 372.042 -116.149 379.171C-115.337 381.909 -114.562 396.751 -114.43 412.148C-114.297 427.547 -113.733 445.753 -113.176 452.607C-112.305 463.353 -111.968 464.464 -110.726 460.671ZM31.658 458.026C32.9194 452.072 32.1841 432.547 29.2747 394.696C28.2831 381.794 27.5387 367.279 27.6191 362.441C27.754 354.443 27.5675 353.902 25.5708 356.49C22.9828 359.843 22.6977 370.598 25.0037 377.845C25.8998 380.662 27.002 398.471 27.4507 417.42C27.8995 436.37 28.7637 454.513 29.3717 457.739L30.4769 463.603L31.658 458.026ZM123.511 437.111C126.134 433.425 127.858 430.003 127.342 429.504C126.828 429.007 123.49 431.368 119.926 434.75L113.444 440.902L108.289 435.759C100.91 428.397 99.4987 429.405 106.249 437.213C113.75 445.893 117.278 445.871 123.511 437.111ZM-17.9194 437.26C-11.5001 428.453 -14.6718 426.578 -21.975 434.862L-27.421 441.037L-32.644 435.826C-35.5156 432.96 -38.7859 430.616 -39.9109 430.616C-41.0343 430.616 -39.0239 433.582 -35.4428 437.207C-27.1542 445.599 -24.0052 445.61 -17.9194 437.26ZM-159.699 437.871C-152.423 427.699 -155.046 425.764 -163.639 434.963L-169.071 440.776L-174.642 435.696C-182.823 428.235 -184.584 429.498 -176.755 437.213C-173.038 440.876 -168.682 443.786 -166.964 443.755C-165.104 443.721 -162.203 441.373 -159.699 437.871ZM125.49 418.52C132.94 410.176 132.224 407.102 124.444 414.034C114.736 422.684 115.298 422.619 106.717 416.06C102.422 412.776 98.116 410.11 97.1487 410.137C96.1814 410.162 97.4368 411.643 99.9384 413.427C102.44 415.211 106.726 418.819 109.464 421.444C112.202 424.069 115.382 426.217 116.529 426.217C117.677 426.217 121.71 422.753 125.49 418.52ZM-16.7884 419.253C-13.0724 415.422 -10.0204 411.795 -10.0067 411.189C-9.94302 408.492 -14.1624 410.569 -20.0041 416.114L-26.3521 422.138L-34.8834 415.909C-39.5773 412.483 -43.7087 409.962 -44.0666 410.307C-44.9217 411.135 -26.8206 426.217 -24.9709 426.217C-24.1855 426.217 -20.5029 423.084 -16.7884 419.253ZM-158.125 419.203C-154.197 415.344 -150.981 411.716 -150.981 411.14C-150.981 408.442 -155.46 410.629 -160.836 415.954C-164.092 419.18 -167.364 421.819 -168.104 421.819C-168.844 421.819 -172.236 419.514 -175.639 416.696C-179.043 413.88 -182.142 411.879 -182.526 412.249C-183.452 413.145 -168.864 426.084 -166.843 426.159C-165.979 426.191 -162.055 423.061 -158.125 419.203ZM126.278 400.592C129.72 396.983 132.535 393.66 132.535 393.21C132.535 391.669 127.229 395.176 122.894 399.582L118.559 403.986L108.774 397.509C97.7946 390.24 93.7753 389.113 99.2956 394.851C102.626 398.315 116.78 407.111 119.076 407.144C119.595 407.152 122.836 404.203 126.278 400.592ZM-15.4496 401.079C-8.16613 392.85 -8.49667 390.859 -16.05 397.458C-19.387 400.374 -22.8711 402.759 -23.7913 402.759C-24.7116 402.759 -28.0229 400.799 -31.1491 398.405C-36.6269 394.209 -44.8519 390.287 -44.8519 391.87C-44.8519 393.029 -37.1106 399.471 -31.9648 402.595C-23.1394 407.954 -21.3928 407.794 -15.4496 401.079ZM-156.932 400.993C-148.857 392.451 -149.427 390.985 -158.052 398.113L-165.123 403.957L-172.972 398.227C-181.414 392.062 -182.867 391.483 -182.736 394.329C-182.624 396.769 -175.237 402.297 -168.395 405.061L-162.884 407.288L-156.932 400.993ZM124.033 381.819C126.912 378.466 128.868 375.093 128.376 374.325C127.885 373.557 125.379 375.353 122.808 378.315C120.236 381.276 117.389 383.7 116.481 383.7C115.573 383.7 112.656 381.39 109.999 378.568C107.345 375.746 103.873 373.437 102.287 373.437C99.8702 373.437 100.273 374.375 104.766 379.215C107.716 382.392 112.08 385.65 114.463 386.453C118.455 387.799 119.208 387.434 124.033 381.819ZM-17.6131 382.295C-11.2894 374.576 -11.8791 371.438 -18.3818 378.202C-21.2883 381.225 -24.2068 383.7 -24.8648 383.7C-25.5243 383.7 -28.3776 381.39 -31.2067 378.568C-34.0358 375.746 -37.7185 373.437 -39.3923 373.437C-41.9637 373.437 -41.527 374.336 -36.5738 379.241C-33.3505 382.433 -28.8007 385.691 -26.4628 386.478C-22.5921 387.783 -21.8007 387.409 -17.6131 382.295ZM-158.049 381.412C-152.019 374.394 -153.772 371.647 -160.034 378.301C-162.828 381.27 -165.857 383.7 -166.765 383.7C-167.674 383.7 -170.322 381.39 -172.651 378.568C-175.224 375.448 -178.197 373.45 -180.232 373.47C-183.134 373.5 -182.633 374.377 -176.464 380.068C-167.854 388.013 -163.965 388.297 -158.049 381.412ZM127.157 361.805C134.095 354.903 132.714 353.934 125.012 360.302C122.125 362.687 119.143 364.64 118.388 364.64C117.632 364.64 112.992 362.278 108.079 359.393C96.5135 352.599 92.849 353.695 103.744 360.689C116.434 368.838 119.921 369.003 127.157 361.805ZM-14.5521 362.463C-7.96602 355.892 -9.50338 354.241 -16.5989 360.264C-22.5891 365.35 -24.557 365.27 -33.2096 359.592C-36.1054 357.692 -40.0806 355.708 -42.0425 355.185C-45.3189 354.31 -45.2385 354.543 -41.0616 358.05C-35.3382 362.854 -26.1262 367.572 -22.4678 367.572C-20.9304 367.572 -17.3675 365.273 -14.5521 362.463ZM-155.552 362.463C-148.836 355.763 -150.954 353.821 -157.888 360.321L-163.234 365.331L-171.763 360.954C-182.67 355.355 -182.82 355.304 -182.82 357.157C-182.82 359.267 -167.678 367.541 -163.786 367.559C-162.074 367.566 -158.368 365.273 -155.552 362.463ZM49.4362 332.73C53.419 328.191 59.9293 316.258 58.4238 316.258C57.0683 316.258 55.0928 318.419 47.7366 327.943L44.9408 331.566L36.9144 326.132C32.501 323.144 28.4999 321.079 28.0269 321.542C26.9671 322.577 33.9004 328.041 41.5356 332.192C46.8936 335.103 47.3272 335.133 49.4362 332.73ZM-90.9286 331.34C-89.508 329.092 -86.738 324.779 -84.7716 321.756C-82.8052 318.731 -81.8879 316.258 -82.7339 316.258C-84.9626 316.258 -89.8021 321.269 -92.5675 326.443C-93.885 328.905 -95.668 330.919 -96.5307 330.919C-97.3934 330.919 -101.226 328.61 -105.048 325.788C-108.87 322.965 -112.752 320.683 -113.675 320.716C-115.984 320.798 -106.889 328.157 -99.5432 332.149L-93.5121 335.427L-90.9286 331.34ZM271.064 330.553C271.566 328.738 271.987 316.863 271.998 304.162C272.019 281.542 271.952 281.071 268.776 281.071C265.753 281.071 265.597 281.593 266.488 288.768C267.014 293.001 267.451 304.878 267.457 315.158C267.469 332.495 268.869 338.47 271.064 330.553ZM256.177 332.264C257.608 330.026 259.99 288.566 258.924 284.461C258.295 282.034 256.953 281.071 254.203 281.071C250.402 281.071 250.372 281.168 251.336 290.083C251.871 295.039 252.309 306.914 252.309 316.473C252.309 332.415 253.354 336.681 256.177 332.264ZM193.249 329.82C194.402 327.603 196.639 323.936 198.218 321.671C199.798 319.407 200.693 317.17 200.205 316.698C198.807 315.346 194.965 319.063 191.372 325.245C189.558 328.365 187.272 330.919 186.293 330.919C185.312 330.919 181.515 328.616 177.854 325.802C170.896 320.454 167.129 318.998 170.545 322.979C173.924 326.917 185.23 333.851 188.27 333.851C189.895 333.851 192.066 332.092 193.249 329.82ZM129.087 331.495C129.733 329.969 130.261 318.174 130.261 305.285C130.261 283.953 130.018 281.805 127.553 281.344C125.006 280.866 124.901 282.395 125.793 306.977C126.314 321.354 127.004 333.378 127.329 333.695C127.652 334.011 128.443 333.022 129.087 331.495ZM115.141 331.347C115.787 329.903 116.632 317.998 117.022 304.895L117.73 281.071L113.656 281.071L109.583 281.071L110.157 307.002C110.709 331.821 112.036 338.305 115.141 331.347ZM101.471 330.919C103.025 327.12 102.952 288.569 101.383 283.783C97.9796 273.418 96.6302 296.122 99.0151 323.589C99.8201 332.856 100.207 334.008 101.471 330.919ZM-12.5311 332.895C-11.9625 332.346 -11.4971 320.461 -11.4971 306.483C-11.4971 284.672 -11.8245 281.071 -13.8122 281.071C-15.8029 281.071 -16.1061 284.528 -15.9712 305.722C-15.8256 328.828 -15.0069 335.291 -12.5311 332.895ZM-26.4127 330.553C-25.2483 328.497 -24.3038 318.555 -23.9051 304.162L-23.2637 281.071L-27.236 281.071L-31.2067 281.071L-31.2067 307.461C-31.2067 333.614 -30.3865 337.568 -26.4127 330.553ZM-39.6364 329.453C-38.1931 323.924 -38.2113 291.725 -39.6622 285.103C-42.8157 270.698 -44.5502 300.607 -41.9788 325.055C-41.0191 334.178 -40.9191 334.366 -39.6364 329.453ZM-153.417 331.532C-152.911 330.256 -152.497 318.381 -152.497 305.142C-152.497 281.556 -152.562 281.071 -155.728 281.071C-158.618 281.071 -158.859 281.652 -158.019 286.569C-157.502 289.592 -157.071 301.469 -157.062 312.959C-157.047 331.962 -155.902 337.795 -153.417 331.532ZM-168.268 332.152C-166.765 329.802 -164.438 290.063 -165.512 285.103C-166.188 281.974 -167.252 281.071 -170.265 281.071C-174.056 281.071 -174.123 281.247 -173.189 288.768C-172.663 293.001 -172.226 304.878 -172.22 315.158C-172.208 332.445 -171.206 336.751 -168.268 332.152ZM244.095 325.502C245.54 316.174 243.745 283.928 241.669 281.937C240.455 280.773 240.089 287.431 240.329 306.362C240.652 332.038 242.01 338.94 244.095 325.502ZM-180.735 327.804C-179.487 321.772 -179.784 298.582 -181.24 288.402C-182.069 282.604 -182.453 287.652 -182.606 306.362C-182.724 320.674 -182.563 332.385 -182.251 332.385C-181.939 332.385 -181.257 330.324 -180.735 327.804ZM194.339 306.775C200.758 297.968 197.586 296.093 190.283 304.376L184.837 310.552L179.614 305.341C176.742 302.475 173.44 300.131 172.279 300.131C171.116 300.131 173.092 303.099 176.668 306.728C184.987 315.17 188.213 315.179 194.339 306.775ZM52.5594 307.386C59.8717 297.163 57.7051 295.688 48.3779 304.541L42.186 310.417L37.0312 305.274C34.196 302.446 31.185 300.131 30.342 300.131C29.4975 300.131 31.8203 303.099 35.5029 306.728C39.2205 310.39 43.5763 313.301 45.2941 313.27C47.1544 313.236 50.0547 310.887 52.5594 307.386ZM-88.7469 306.625C-86.124 302.94 -84.4001 299.518 -84.9156 299.019C-85.4296 298.522 -88.7545 300.869 -92.3037 304.239L-98.7564 310.363L-104.351 304.954C-107.427 301.978 -110.27 299.858 -110.667 300.243C-112.044 301.575 -99.1915 313.326 -96.3594 313.326C-94.6871 313.326 -91.5487 310.563 -88.7469 306.625ZM195.444 288.768C200.458 283.578 201.565 281.675 199.783 281.298C198.469 281.021 194.821 283.222 191.679 286.188L185.965 291.583L178.137 286.145C173.833 283.154 170.059 280.954 169.753 281.256C168.96 282.039 185.528 295.732 187.269 295.732C188.063 295.732 191.743 292.599 195.444 288.768ZM53.3811 289.445C56.8895 285.988 59.761 282.689 59.761 282.115C59.761 279.784 55.5158 281.304 52.0651 284.871C45.3123 291.853 43.6218 292.008 36.6992 286.279C33.2394 283.414 29.7189 281.071 28.8775 281.071C26.8913 281.071 43.3368 295.578 45.4215 295.666C46.2902 295.703 49.8713 292.903 53.3811 289.445ZM-87.4445 288.768C-80.9327 281.407 -81.7075 278.297 -88.5619 284.282C-97.5374 292.117 -97.2266 292.077 -104.465 286.342C-114.23 278.603 -114.987 279.921 -105.646 288.402C-101.205 292.433 -96.6793 295.732 -95.5877 295.732C-94.496 295.732 -90.8315 292.599 -87.4445 288.768Z" fill="black"/>
</g>
</g>
<defs>
<clipPath id="clip0_13343_7659">
<rect width="455" height="344" fill="white" transform="matrix(-1 0 0 1 272 0)"/>
</clipPath>
<clipPath id="clip1_13343_7659">
<rect width="455" height="477" fill="white" transform="matrix(-1 0 0 1 272 342)"/>
</clipPath>
</defs>
</svg>
