<svg width="88" height="42" viewBox="0 0 88 42" fill="none" xmlns="http://www.w3.org/2000/svg">
<g clip-path="url(#clip0_13834_2029)">
<path d="M23.418 16.8726C20.7107 24.0203 22.7654 28.3764 18.9382 31.4713C16.7393 33.249 14.17 33.1022 12.082 32.4626V33.9065H24.2635C27.8656 33.9065 30.7858 30.8672 30.7858 27.1181C30.79 26.0042 30.5261 24.9063 30.0171 23.9201C29.5081 22.934 28.7696 22.0898 27.8659 21.4611C28.6223 20.9299 29.2643 20.2473 29.7527 19.4551C30.241 18.6628 30.5655 17.7775 30.7061 16.8533C30.8468 15.929 30.8008 14.9853 30.5708 14.0798C30.3409 13.1743 29.9319 12.3261 29.3688 11.5869C27.6173 12.1074 24.7099 13.4614 23.418 16.8726Z" fill="#FF8607"/>
<path d="M16.654 26.8675C19.9045 25.5636 19.2152 21.4292 20.7203 18.0677C22.5964 13.8783 25.3799 12.3507 29.2046 11.3816C28.6013 10.6433 27.8462 10.0489 26.9924 9.6402C26.1386 9.23154 25.207 9.01866 24.2635 9.0166H12.082V23.3007C12.2547 26.0245 14.3552 27.7898 16.654 26.8675Z" fill="#006633"/>
<path d="M20.721 41.0085C17.7024 40.7254 14.7897 39.7326 12.2126 38.1084C9.63544 36.4842 7.4643 34.273 5.87036 31.6491C4.27642 29.0252 3.30325 26.0604 3.02759 22.9884C2.75194 19.9164 3.18132 16.8213 4.2819 13.947C5.38247 11.0727 7.12415 8.49789 9.36959 6.42555C11.615 4.35322 14.3029 2.84002 17.2211 2.00527C20.1394 1.17053 23.2083 1.03705 26.186 1.61537C29.1636 2.19369 31.9685 3.468 34.3795 5.33781C31.5298 2.7483 28.0296 1.01469 24.2688 0.330087C20.5081 -0.354516 16.6343 0.0367707 13.0792 1.46036C9.52404 2.88395 6.42706 5.28395 4.13324 8.393C1.83942 11.5021 0.438817 15.1981 0.0874595 19.0694C-0.263898 22.9407 0.447783 26.8353 2.14322 30.3192C3.83867 33.8032 6.4513 36.7398 9.69008 38.802C12.9289 40.8641 16.6666 41.9707 20.487 41.9986C24.3074 42.0265 28.0604 40.9746 31.328 38.96C28.0527 40.6466 24.3757 41.3567 20.721 41.0085Z" fill="#006633"/>
<path d="M32.9381 22.9597H36.9566L34.8799 32.0893H36.6035L36.1987 33.9067H32.3672L34.4439 24.7771H32.5125L32.9381 22.9597ZM34.9216 19.1029C34.9206 18.9176 34.9576 18.7341 35.0304 18.5642C35.1 18.3998 35.2006 18.2508 35.3263 18.1256C35.453 18.001 35.6008 17.9008 35.7625 17.8297C35.933 17.7549 36.1169 17.7171 36.3025 17.7188C36.4847 17.7179 36.665 17.7556 36.832 17.8297C37.1569 17.9702 37.4157 18.2335 37.5537 18.5642C37.6266 18.734 37.6637 18.9176 37.6627 19.1029C37.6633 19.29 37.6262 19.4752 37.5537 19.6471C37.484 19.815 37.3856 19.9689 37.2629 20.1016C37.1405 20.2329 36.9941 20.3388 36.832 20.4134C36.6659 20.4908 36.4852 20.5304 36.3025 20.5294C36.1164 20.5311 35.9321 20.4915 35.7625 20.4134C35.5993 20.338 35.4514 20.2322 35.3263 20.1016C35.201 19.97 35.1007 19.8159 35.0304 19.6471C34.958 19.4752 34.9209 19.29 34.9216 19.1029Z" fill="#FF8607"/>
<path d="M48.3322 25.9826H46.2245L46.5256 24.6935C45.914 24.675 45.313 24.8585 44.8124 25.2166C44.3279 25.5814 43.9304 26.0527 43.6495 26.5954L42.4035 32.09H44.1895L43.7845 33.9075H39.8906L41.9673 24.778H39.9115L40.3371 22.9606H44.3971L44.0544 24.4611C44.2472 24.2367 44.4553 24.0266 44.6774 23.8323C44.8943 23.642 45.129 23.4739 45.3783 23.3305C45.6214 23.1907 45.8791 23.0791 46.1465 22.9977C46.4076 22.9174 46.6787 22.8764 46.9514 22.876C47.2008 22.876 47.415 22.8797 47.5954 22.8867C47.7751 22.8938 47.9671 22.9061 48.1715 22.9237C48.3757 22.9414 48.6578 22.9749 49.0177 23.024L48.3322 25.9826Z" fill="#FF8607"/>
<path d="M57.4608 33.1674C57.0303 33.4676 56.5601 33.7042 56.0642 33.87C55.5959 34.0215 55.1072 34.0981 54.6157 34.097C54.0474 34.1013 53.4846 33.9825 52.9648 33.7485C52.4631 33.5236 52.0097 33.2004 51.6305 32.7973C51.2468 32.3858 50.9437 31.9035 50.7377 31.3763C50.5171 30.8171 50.406 30.2194 50.4106 29.6169C50.3997 28.6533 50.5797 27.6974 50.94 26.8062C51.273 25.9848 51.7616 25.238 52.378 24.6085C52.9845 23.9951 53.7046 23.5102 54.4965 23.1819C55.3118 22.842 56.1852 22.6698 57.0663 22.6749C57.5638 22.6713 58.0585 22.7516 58.5303 22.9125C58.9393 23.0443 59.3199 23.2541 59.6519 23.5307L59.787 22.9602H61.8739L59.7972 32.0896H61.4689L61.0638 33.907H57.2947L57.4608 33.1674ZM55.1038 32.2798C55.3679 32.2788 55.631 32.2468 55.8879 32.1846C56.1479 32.1233 56.403 32.042 56.6509 31.9415C56.8879 31.8456 57.1171 31.7308 57.3364 31.5982C57.5368 31.478 57.7277 31.342 57.9073 31.1914L59.2468 25.3375C59.0195 25.0706 58.7306 24.8655 58.406 24.7405C57.9285 24.5579 57.4202 24.4734 56.9104 24.4921C56.3677 24.4942 55.8309 24.6075 55.3321 24.8251C54.8104 25.0488 54.3375 25.3756 53.9407 25.7865C53.5154 26.2318 53.1772 26.7554 52.9442 27.3293C52.6786 27.9876 52.5479 28.6941 52.5599 29.4056C52.5537 29.8168 52.6169 30.2261 52.7468 30.6155C52.8584 30.9491 53.035 31.2563 53.266 31.5189C53.4889 31.7666 53.764 31.9599 54.0707 32.0843C54.3993 32.2173 54.7502 32.2837 55.1038 32.2798Z" fill="#FF8607"/>
<path d="M71.1475 33.2306C70.7388 33.5272 70.2843 33.7522 69.8028 33.8963C69.3176 34.0334 68.8161 34.101 68.3126 34.097C67.7443 34.1013 67.1815 33.9825 66.6617 33.7485C66.16 33.5236 65.7066 33.2004 65.3276 32.7973C64.9437 32.3858 64.6406 31.9035 64.4344 31.3763C64.2139 30.8171 64.1028 30.2194 64.1073 29.6168C64.0963 28.6532 64.2765 27.6973 64.6371 26.8062C64.9699 25.9847 65.4585 25.238 66.0749 24.6085C66.6814 23.9951 67.4016 23.5102 68.1935 23.1819C69.0088 22.8421 69.8822 22.6698 70.7632 22.6749C71.2608 22.6713 71.7555 22.7516 72.2273 22.9125C72.6363 23.0443 73.0169 23.2541 73.3488 23.5307L73.484 22.9602H75.5918L73.1202 33.7801C72.9488 34.595 72.6693 35.3823 72.2895 36.1205C71.974 36.7272 71.5434 37.2642 71.0227 37.7003C70.509 38.1169 69.9173 38.4224 69.2836 38.5984C68.5507 38.7981 67.7943 38.8941 67.0356 38.8838C66.6392 38.8825 66.2434 38.8507 65.8516 38.7888C65.4447 38.7256 65.0436 38.6284 64.6524 38.4982C64.2691 38.371 63.8988 38.2065 63.5467 38.0068C63.212 37.8182 62.9044 37.5835 62.6328 37.3093L63.9725 35.7667C64.1509 35.9599 64.3533 36.1286 64.5746 36.2685C64.8212 36.4258 65.082 36.5585 65.3536 36.6647C65.6448 36.7796 65.9453 36.868 66.2517 36.929C66.568 36.9924 66.8897 37.0243 67.2121 37.024C67.6706 37.0289 68.1278 36.9738 68.5725 36.8601C68.9744 36.7543 69.3484 36.5595 69.6677 36.2896C70.0167 35.9834 70.3026 35.6099 70.5089 35.1907C70.8019 34.5673 71.0165 33.9087 71.1475 33.2306ZM68.8007 32.2798C69.3203 32.2837 69.8355 32.1832 70.3167 31.9839C70.7878 31.7864 71.2257 31.5154 71.6148 31.1808L72.9438 25.3481C72.716 25.0806 72.4273 24.8738 72.1028 24.7458C71.6263 24.5594 71.1177 24.4731 70.6075 24.4921C70.0647 24.4943 69.5279 24.6075 69.029 24.8251C68.5073 25.0488 68.0345 25.3756 67.6377 25.7865C67.2124 26.2318 66.8742 26.7554 66.6411 27.3292C66.3755 27.9876 66.2448 28.6941 66.2568 29.4056C66.2506 29.8168 66.3138 30.2261 66.4437 30.6155C66.5553 30.9491 66.7319 31.2563 66.9629 31.5188C67.1858 31.7666 67.4609 31.9599 67.7676 32.0843C68.0962 32.2172 68.4471 32.2837 68.8007 32.2798Z" fill="#FF8607"/>
<path d="M76.7658 29.1631C76.7616 28.0033 77.057 26.8628 77.6224 25.8557C77.8931 25.3735 78.2248 24.9294 78.609 24.5349C78.9892 24.1435 79.4166 23.8027 79.881 23.5206C80.3477 23.2376 80.8486 23.0174 81.371 22.8655C81.9061 22.7097 82.4601 22.6314 83.0167 22.633C83.6964 22.6265 84.3706 22.7576 85.0001 23.0186C85.5864 23.259 86.12 23.6153 86.5701 24.067C87.0201 24.5186 87.3777 25.0566 87.622 25.6498C87.8767 26.263 88.0057 26.9228 88.001 27.5885C88.0032 28.1846 87.9263 28.7782 87.7724 29.3533C87.4822 30.4455 86.925 31.4451 86.1527 32.2589C85.7759 32.6573 85.348 33.0021 84.8806 33.2839C84.4102 33.5672 83.9059 33.7874 83.3801 33.9391C82.8397 34.095 82.2805 34.1732 81.7188 34.1715C81.039 34.1794 80.3646 34.0482 79.7355 33.7858C79.1496 33.5398 78.6169 33.179 78.1678 32.724C77.7222 32.2696 77.3708 31.7288 77.1345 31.1336C76.8856 30.5078 76.7603 29.8382 76.7658 29.1631ZM78.9362 29.015C78.9306 29.4732 79.0025 29.929 79.1488 30.3624C79.2776 30.7448 79.4806 31.0969 79.7458 31.3978C80.0037 31.6843 80.319 31.9112 80.6702 32.0634C81.0444 32.225 81.4474 32.306 81.8539 32.3013C82.3654 32.2999 82.8705 32.1844 83.3335 31.9631C83.8143 31.7381 84.2466 31.4185 84.6054 31.0227C84.9858 30.5995 85.2867 30.1088 85.4931 29.5751C85.7234 28.9834 85.8381 28.3517 85.8307 27.7154C85.8374 27.2614 85.7617 26.8101 85.6073 26.3841C85.4695 26.0076 85.2596 25.6628 84.9897 25.3696C84.7281 25.0891 84.4114 24.8676 84.0602 24.7198C83.6897 24.5656 83.2925 24.4884 82.8922 24.4927C82.3811 24.4923 81.876 24.6059 81.4126 24.8254C80.9365 25.0488 80.5078 25.3648 80.1507 25.7554C79.7719 26.1728 79.4727 26.6583 79.2684 27.187C79.0421 27.7687 78.9293 28.3895 78.9362 29.015Z" fill="#FF8607"/>
<path d="M47.2306 2.55246C47.2306 2.55246 46.4815 2.26532 44.9999 2.81807C44.1168 3.14617 43.2592 3.54119 42.4342 3.99981L40.7481 2.94045L41.388 2.57383L41.1067 2.06534L40.1903 2.59024L38.0227 1.22852L37.2692 1.73752L40.3142 4.97303L37.708 6.52123L36.1961 5.69774L35.8125 5.99292L36.8804 7.38968L37.1223 9.01581L37.6394 8.82541L38.0187 7.26371L40.7754 6.14264L41.2842 10.7213L41.9922 10.4691L42.4134 8.15933L43.5032 7.53513L43.2218 7.02647L42.5498 7.41138L42.9427 5.25813C42.9427 5.25813 46.0172 3.86855 46.6247 3.39407C47.2321 2.91943 47.2306 2.55246 47.2306 2.55246Z" fill="#006633"/>
<path d="M38.135 3.64765L33.9219 6.066L37.7961 3.28906L38.135 3.64765Z" fill="#B2B2B2"/>
<path d="M40.4109 7.99902L40.4902 8.80355L34.2109 12.3503L40.4109 7.99902Z" fill="#B2B2B2"/>
<path d="M35.5139 7.85938L30.4453 10.8124L35.8114 8.38906L35.7813 8.03559L35.5139 7.85938Z" fill="#B2B2B2"/>
<path d="M14.0987 35.3832H13.25V35.0713H15.3161V35.3832H14.4632V37.9113H14.0987V35.3832Z" fill="#B2B2B2"/>
<path d="M16.2588 36.5081C16.2588 36.2678 16.2548 36.0613 16.2422 35.8716H16.5608L16.5734 36.2719H16.59C16.6243 36.1473 16.6965 36.037 16.7962 35.9567C16.8959 35.8765 17.018 35.8305 17.145 35.8252C17.1798 35.8247 17.2146 35.829 17.2483 35.8381V36.1876C17.2075 36.1786 17.1659 36.1745 17.1242 36.1751C16.9997 36.1802 16.8814 36.2314 16.7914 36.3191C16.7015 36.4068 16.6461 36.5248 16.6357 36.6511C16.6253 36.7082 16.6198 36.7661 16.6191 36.8241V37.911H16.2588V36.5081Z" fill="#B2B2B2"/>
<path d="M19.5328 37.9112L19.5039 37.6543H19.4913C19.4201 37.7507 19.3274 37.8285 19.2208 37.8812C19.1142 37.934 18.9969 37.9601 18.8784 37.9575C18.7996 37.9634 18.7204 37.9526 18.646 37.9258C18.5715 37.899 18.5033 37.8567 18.4457 37.8017C18.3881 37.7466 18.3423 37.68 18.3114 37.606C18.2804 37.5321 18.2648 37.4524 18.2657 37.372C18.2657 36.8789 18.6961 36.6092 19.4706 36.6133V36.5712C19.4787 36.508 19.4725 36.4438 19.4526 36.3834C19.4327 36.323 19.3996 36.268 19.3558 36.2225C19.3119 36.177 19.2585 36.1423 19.1995 36.1209C19.1405 36.0995 19.0775 36.0921 19.0153 36.0991C18.8309 36.0997 18.6503 36.1522 18.4934 36.2509L18.4104 36.0065C18.6091 35.8848 18.8372 35.8221 19.069 35.8253C19.6819 35.8253 19.8307 36.2509 19.8307 36.6596V37.4224C19.8281 37.586 19.8392 37.7495 19.864 37.9112H19.5328ZM19.4787 36.8705C19.0811 36.8619 18.63 36.9334 18.63 37.3298C18.6262 37.3769 18.6325 37.4242 18.6484 37.4686C18.6643 37.513 18.6894 37.5534 18.7221 37.587C18.7547 37.6206 18.7941 37.6467 18.8375 37.6634C18.881 37.6801 18.9275 37.687 18.9738 37.6837C19.0797 37.6865 19.1837 37.6549 19.2708 37.5936C19.358 37.5322 19.4236 37.4443 19.4584 37.3424C19.471 37.3043 19.4779 37.2645 19.4787 37.2243V36.8705Z" fill="#B2B2B2"/>
<path d="M21.3581 35.8721L21.7515 37.0183C21.8143 37.1895 21.8682 37.3639 21.9129 37.5409H21.9255C21.971 37.3722 22.0288 37.2035 22.0951 37.0183L22.4844 35.8721H22.8654L22.0788 37.9117H21.7308L20.9688 35.8721H21.3581Z" fill="#B2B2B2"/>
<path d="M24.1994 36.9589C24.1914 37.0532 24.2036 37.1481 24.2352 37.2371C24.2668 37.3261 24.317 37.407 24.3824 37.4743C24.4478 37.5416 24.5267 37.5936 24.6138 37.6268C24.7009 37.66 24.794 37.6735 24.8867 37.6665C25.077 37.6726 25.2663 37.6367 25.4417 37.5612L25.5038 37.8267C25.2929 37.9162 25.0657 37.9594 24.8372 37.9533C24.2202 37.9533 23.8516 37.5404 23.8516 36.9249C23.8516 36.3099 24.2076 35.8252 24.7917 35.8252C25.4457 35.8252 25.6197 36.4109 25.6197 36.7859C25.619 36.8438 25.615 36.9016 25.6074 36.9589H24.1994ZM25.2677 36.6933C25.2717 36.4573 25.1726 36.0906 24.7624 36.0906C24.3941 36.0906 24.2323 36.4361 24.2036 36.6933H25.2677Z" fill="#B2B2B2"/>
<path d="M27.2665 34.9199H26.9023V37.9117H27.2665V34.9199Z" fill="#B2B2B2"/>
<path d="M30.7901 35.0713H30.4297V37.9113H30.7901V35.0713Z" fill="#B2B2B2"/>
<path d="M32.2783 36.4239C32.2783 36.2129 32.2743 36.0405 32.2617 35.8718H32.5849L32.6052 36.2088H32.6138C32.6794 36.0896 32.7758 35.9908 32.8925 35.9232C33.0093 35.8557 33.1419 35.8218 33.2762 35.8255C33.5535 35.8255 33.9844 35.994 33.9844 36.6936V37.9112H33.6197V36.7358C33.6197 36.4069 33.4998 36.1331 33.156 36.1331C33.0454 36.135 32.9384 36.1729 32.8504 36.2411C32.7625 36.3093 32.6984 36.4044 32.6674 36.5124C32.6499 36.5681 32.6415 36.6264 32.6425 36.6848V37.9112H32.2783V36.4239Z" fill="#B2B2B2"/>
<path d="M35.831 35.2861V35.8719H36.3526V36.1544H35.831V37.2541C35.831 37.5069 35.9014 37.65 36.1041 37.65C36.1754 37.651 36.2465 37.6426 36.3156 37.6248L36.3319 37.9031C36.2283 37.9399 36.1188 37.957 36.0091 37.9535C35.9363 37.9579 35.8635 37.9463 35.7956 37.9194C35.7276 37.8925 35.6662 37.851 35.6155 37.7976C35.5047 37.6449 35.4544 37.4553 35.4746 37.2666V36.1544H35.1641V35.8719H35.4746V35.3832L35.831 35.2861Z" fill="#B2B2B2"/>
<path d="M37.7699 36.9589C37.7619 37.0532 37.7741 37.1481 37.8057 37.2371C37.8372 37.3261 37.8875 37.4071 37.9528 37.4744C38.0182 37.5417 38.0972 37.5937 38.1842 37.6269C38.2713 37.6601 38.3645 37.6736 38.4572 37.6665C38.6475 37.6726 38.8368 37.6367 39.0121 37.5612L39.0743 37.8267C38.8633 37.9162 38.6361 37.9594 38.4076 37.9533C37.7905 37.9533 37.4219 37.5404 37.4219 36.9249C37.4219 36.3099 37.778 35.8252 38.3621 35.8252C39.0162 35.8252 39.1902 36.4109 39.1902 36.7859C39.1896 36.8438 39.1854 36.9016 39.1777 36.9589H37.7699ZM38.8381 36.6933C38.8422 36.4573 38.7431 36.0906 38.3329 36.0906C37.9646 36.0906 37.8028 36.4361 37.7739 36.6933H38.8381Z" fill="#B2B2B2"/>
<path d="M40.4698 36.5081C40.4698 36.2678 40.4657 36.0613 40.4531 35.8716H40.7717L40.7843 36.2719H40.801C40.8352 36.1473 40.9073 36.037 41.007 35.9567C41.1067 35.8765 41.2288 35.8305 41.3557 35.8252C41.3906 35.8247 41.4255 35.829 41.4592 35.8381V36.1876C41.4184 36.1787 41.3768 36.1745 41.3351 36.1751C41.2106 36.1803 41.0923 36.2315 41.0023 36.3191C40.9124 36.4068 40.857 36.5248 40.8465 36.6511C40.8361 36.7082 40.8305 36.7661 40.8299 36.8241V37.911H40.4698V36.5081Z" fill="#B2B2B2"/>
<path d="M42.6729 36.4239C42.6729 36.2129 42.6688 36.0405 42.6562 35.8718H42.9792L42.9997 36.2088H43.0083C43.0739 36.0896 43.1703 35.9908 43.287 35.9232C43.4038 35.8557 43.5365 35.8218 43.6707 35.8255C43.9481 35.8255 44.3789 35.994 44.3789 36.6936V37.9112H44.0142V36.7358C44.0142 36.4069 43.8943 36.1331 43.5505 36.1331C43.4399 36.135 43.3329 36.1728 43.245 36.2411C43.157 36.3093 43.0929 36.4044 43.0619 36.5124C43.0445 36.5681 43.0361 36.6264 43.037 36.6848V37.9112H42.6729V36.4239Z" fill="#B2B2B2"/>
<path d="M46.9076 37.9112L46.8787 37.6543H46.8663C46.7951 37.7507 46.7024 37.8285 46.5958 37.8812C46.4892 37.9339 46.3719 37.9601 46.2534 37.9575C46.1746 37.9634 46.0954 37.9526 46.021 37.9258C45.9465 37.899 45.8783 37.8567 45.8207 37.8017C45.7631 37.7466 45.7173 37.68 45.6864 37.606C45.6554 37.5321 45.6398 37.4524 45.6407 37.372C45.6407 36.8789 46.0711 36.6092 46.8455 36.6133V36.5712C46.8535 36.508 46.8474 36.4438 46.8275 36.3834C46.8077 36.323 46.7745 36.268 46.7307 36.2225C46.6869 36.177 46.6334 36.1423 46.5744 36.1209C46.5155 36.0995 46.4525 36.0921 46.3903 36.0991C46.2059 36.0997 46.0253 36.1522 45.8684 36.2509L45.7854 36.0065C45.9841 35.8848 46.2122 35.8221 46.444 35.8253C47.0569 35.8253 47.2057 36.2509 47.2057 36.6596V37.4224C47.2031 37.586 47.2142 37.7495 47.239 37.9112H46.9076ZM46.8537 36.8705C46.4561 36.8619 46.005 36.9334 46.005 37.3298C46.0012 37.3769 46.0075 37.4242 46.0234 37.4686C46.0393 37.513 46.0644 37.5534 46.0971 37.587C46.1297 37.6206 46.1691 37.6467 46.2125 37.6634C46.256 37.6801 46.3025 37.687 46.3488 37.6837C46.4547 37.6865 46.5587 37.6549 46.6458 37.5936C46.7329 37.5322 46.7986 37.4442 46.8334 37.3424C46.846 37.3043 46.8528 37.2645 46.8537 37.2243V36.8705Z" fill="#B2B2B2"/>
<path d="M49.0498 35.2861V35.8719H49.5713V36.1544H49.0498V37.2541C49.0498 37.5069 49.1202 37.65 49.3229 37.65C49.3941 37.651 49.4651 37.6426 49.5341 37.6248L49.5505 37.9031C49.4469 37.9399 49.3375 37.957 49.2279 37.9535C49.1551 37.9579 49.0823 37.9463 49.0144 37.9194C48.9465 37.8925 48.8851 37.851 48.8345 37.7976C48.7235 37.645 48.6731 37.4554 48.6934 37.2666V36.1544H48.3828V35.8719H48.6934V35.3832L49.0498 35.2861Z" fill="#B2B2B2"/>
<path d="M51.217 35.2986C51.2166 35.3592 51.1926 35.4172 51.1503 35.4599C51.108 35.5026 51.0509 35.5265 50.9914 35.5265C50.9318 35.5265 50.8747 35.5026 50.8324 35.4599C50.7901 35.4172 50.7662 35.3592 50.7657 35.2986C50.7649 35.268 50.7702 35.2374 50.7814 35.2089C50.7926 35.1804 50.8093 35.1545 50.8306 35.1328C50.8519 35.1111 50.8773 35.094 50.9053 35.0826C50.9333 35.0712 50.9633 35.0658 50.9935 35.0665C51.0235 35.0655 51.0534 35.0708 51.0813 35.0822C51.1091 35.0936 51.1344 35.1107 51.1554 35.1325C51.1764 35.1544 51.1928 35.1804 51.2034 35.209C51.214 35.2376 51.2186 35.2681 51.217 35.2986ZM50.8112 35.8716H51.1755V37.9111H50.8112V35.8716Z" fill="#B2B2B2"/>
<path d="M54.4233 36.8745C54.4233 37.6287 53.9095 37.9574 53.4249 37.9574C52.8827 37.9574 52.4648 37.5529 52.4648 36.9081C52.4648 36.2257 52.9037 35.8252 53.4583 35.8252C54.0338 35.8252 54.4233 36.251 54.4233 36.8745ZM52.833 36.8957C52.833 37.3423 53.086 37.6795 53.4419 37.6795C53.7899 37.6795 54.0501 37.3465 54.0501 36.8869C54.0501 36.5417 53.8809 36.1036 53.4501 36.1036C53.0193 36.1036 52.833 36.508 52.833 36.8957Z" fill="#B2B2B2"/>
<path d="M55.7124 36.4238C55.7124 36.2129 55.7084 36.0405 55.6953 35.8718H56.0188L56.0393 36.2088H56.0474C56.1131 36.0896 56.2096 35.991 56.3263 35.9234C56.4431 35.8559 56.5757 35.822 56.71 35.8254C56.9879 35.8254 57.4179 35.994 57.4179 36.6935V37.9112H57.0538V36.7358C57.0538 36.4069 56.9337 36.1331 56.5904 36.1331C56.4798 36.1348 56.3727 36.1726 56.2847 36.2409C56.1968 36.3091 56.1327 36.4043 56.1018 36.5124C56.0839 36.568 56.0754 36.6263 56.0766 36.6848V37.9112H55.7124V36.4238Z" fill="#B2B2B2"/>
<path d="M59.9511 37.9112L59.922 37.6543H59.9096C59.8384 37.7507 59.7457 37.8285 59.6391 37.8812C59.5325 37.934 59.4152 37.9601 59.2967 37.9575C59.2179 37.9634 59.1387 37.9526 59.0642 37.9258C58.9897 37.8989 58.9215 37.8567 58.8639 37.8016C58.8063 37.7466 58.7605 37.68 58.7295 37.606C58.6984 37.5321 58.6828 37.4524 58.6836 37.372C58.6836 36.8789 59.1146 36.6092 59.8893 36.6133V36.5712C59.8973 36.508 59.8911 36.4437 59.8712 36.3833C59.8512 36.3228 59.818 36.2678 59.7741 36.2223C59.7302 36.1768 59.6767 36.1421 59.6176 36.1208C59.5586 36.0994 59.4955 36.092 59.4332 36.0991C59.2489 36.0999 59.0683 36.1524 58.9114 36.2509L58.8292 36.0065C59.0276 35.8848 59.2554 35.8221 59.487 35.8253C60.0999 35.8253 60.2495 36.2509 60.2495 36.6596V37.4224C60.2469 37.586 60.2578 37.7495 60.282 37.9112H59.9511ZM59.8975 36.8705C59.4999 36.8619 59.0486 36.9334 59.0486 37.3297C59.0448 37.3768 59.051 37.4241 59.0669 37.4685C59.0827 37.5129 59.1078 37.5533 59.1403 37.5869C59.1729 37.6205 59.2123 37.6465 59.2557 37.6633C59.299 37.68 59.3455 37.687 59.3918 37.6837C59.4977 37.6866 59.6018 37.6551 59.6889 37.5937C59.776 37.5323 59.8417 37.4443 59.8763 37.3424C59.8896 37.3044 59.8967 37.2646 59.8975 37.2243V36.8705Z" fill="#B2B2B2"/>
<path d="M62.0321 34.9199H61.668V37.9117H62.0321V34.9199Z" fill="#B2B2B2"/>
</g>
<defs>
<clipPath id="clip0_13834_2029">
<rect width="88" height="42" fill="white"/>
</clipPath>
</defs>
</svg>
