<svg width="13" height="11" viewBox="0 0 13 11" fill="none" xmlns="http://www.w3.org/2000/svg">
<path d="M11.7823 5.78133C11.6416 5.92199 11.4509 6.00101 11.252 6.00101L2.56245 6.00101L5.78295 9.22001C5.85268 9.28974 5.908 9.37252 5.94574 9.46363C5.98348 9.55474 6.0029 9.65239 6.0029 9.75101C6.0029 9.84962 5.98348 9.94727 5.94574 10.0384C5.908 10.1295 5.85268 10.2123 5.78295 10.282C5.71322 10.3517 5.63044 10.4071 5.53933 10.4448C5.44822 10.4825 5.35057 10.502 5.25195 10.502C5.15334 10.502 5.05569 10.4825 4.96458 10.4448C4.87347 10.4071 4.79068 10.3517 4.72095 10.282L0.220953 5.78201C0.151107 5.71234 0.0956932 5.62957 0.0578838 5.53846C0.0200744 5.44734 0.000611808 5.34966 0.0006118 5.25101C0.000611791 5.15236 0.0200744 5.05467 0.0578837 4.96356C0.0956931 4.87244 0.151107 4.78967 0.220952 4.72001L4.72095 0.220006C4.79068 0.150274 4.87347 0.0949599 4.96458 0.0572211C5.05569 0.0194823 5.15334 5.97265e-05 5.25195 5.97179e-05C5.35057 5.97093e-05 5.44822 0.0194822 5.53933 0.057221C5.63044 0.0949598 5.71322 0.150274 5.78295 0.220006C5.85268 0.289737 5.908 0.37252 5.94574 0.463629C5.98348 0.554739 6.0029 0.65239 6.0029 0.751006C6.0029 0.849621 5.98348 0.947273 5.94574 1.03838C5.908 1.12949 5.85268 1.21227 5.78295 1.28201L2.56245 4.50101L11.252 4.50101C11.4509 4.50101 11.6416 4.58002 11.7823 4.72067C11.9229 4.86133 12.002 5.05209 12.002 5.25101C12.002 5.44992 11.9229 5.64068 11.7823 5.78133Z" fill="#FF8607"/>
</svg>
