<svg width="13" height="11" viewBox="0 0 13 11" fill="none" xmlns="http://www.w3.org/2000/svg">
<path d="M0.21967 4.72062C0.360323 4.57997 0.551088 4.50095 0.75 4.50095H9.4395L6.219 1.28195C6.14927 1.21222 6.09395 1.12943 6.05622 1.03832C6.01848 0.947214 5.99905 0.849564 5.99905 0.750948C5.99905 0.652332 6.01848 0.554682 6.05622 0.463573C6.09395 0.372463 6.14927 0.28968 6.219 0.219948C6.28873 0.150216 6.37152 0.0949014 6.46262 0.0571628C6.55373 0.0194241 6.65138 0 6.75 0C6.84862 0 6.94627 0.0194241 7.03738 0.0571628C7.12848 0.0949014 7.21127 0.150216 7.281 0.219948L11.781 4.71995C11.8508 4.78962 11.9063 4.87238 11.9441 4.9635C11.9819 5.05462 12.0013 5.1523 12.0013 5.25095C12.0013 5.3496 11.9819 5.44728 11.9441 5.5384C11.9063 5.62952 11.8508 5.71228 11.781 5.78195L7.281 10.2819C7.21127 10.3517 7.12848 10.407 7.03738 10.4447C6.94627 10.4825 6.84862 10.5019 6.75 10.5019C6.65138 10.5019 6.55373 10.4825 6.46262 10.4447C6.37152 10.407 6.28873 10.3517 6.219 10.2819C6.14927 10.2122 6.09395 10.1294 6.05622 10.0383C6.01848 9.94722 5.99905 9.84956 5.99905 9.75095C5.99905 9.65233 6.01848 9.55468 6.05622 9.46357C6.09395 9.37246 6.14927 9.28968 6.219 9.21995L9.4395 6.00095H0.75C0.551088 6.00095 0.360323 5.92193 0.21967 5.78128C0.079018 5.64063 0 5.44986 0 5.25095C0 5.05204 0.079018 4.86127 0.21967 4.72062Z" fill="#FF8607"/>
</svg>
